<?xml version="1.0" encoding="UTF-8" standalone="no"?>
<!-- Created with Inkscape (http://www.inkscape.org/) -->

<svg
   width="58.632mm"
   height="10mm"
   viewBox="0 0 58.632 10"
   version="1.1"
   id="svg1"
   inkscape:version="1.4 (e7c3feb1, 2024-10-09)"
   sodipodi:docname="hr.svg"
   inkscape:export-filename="hr.png"
   inkscape:export-xdpi="96"
   inkscape:export-ydpi="96"
   xmlns:inkscape="http://www.inkscape.org/namespaces/inkscape"
   xmlns:sodipodi="http://sodipodi.sourceforge.net/DTD/sodipodi-0.dtd"
   xmlns="http://www.w3.org/2000/svg"
   xmlns:svg="http://www.w3.org/2000/svg">
  <sodipodi:namedview
     id="namedview1"
     pagecolor="#ffffff"
     bordercolor="#000000"
     borderopacity="0.25"
     inkscape:showpageshadow="2"
     inkscape:pageopacity="0.0"
     inkscape:pagecheckerboard="0"
     inkscape:deskcolor="#d1d1d1"
     inkscape:document-units="mm"
     inkscape:zoom="1.5955821"
     inkscape:cx="55.152287"
     inkscape:cy="119.39217"
     inkscape:window-width="2560"
     inkscape:window-height="1302"
     inkscape:window-x="0"
     inkscape:window-y="25"
     inkscape:window-maximized="1"
     inkscape:current-layer="layer1"
     inkscape:export-bgcolor="#ffffff00" />
  <defs
     id="defs1" />
  <g
     inkscape:label="Calque 1"
     inkscape:groupmode="layer"
     id="layer1"
     transform="translate(-55.073815,-98.452541)">
    <path
       style="fill:#d4aa00;fill-opacity:1;stroke:#d4aa00;stroke-width:0.847831;stroke-dasharray:none"
       d="m 93.693696,105.68696 c -3.796676,-0.22246 -7.564027,-0.73508 -11.059337,-1.50483 -4.81715,-1.06086 -6.57611,-1.35411 -10.382362,-1.73092 -3.709991,-0.36728 -7.698789,-0.4144 -10.928135,-0.1291 -1.656031,0.14631 -3.974599,0.50991 -5.224156,0.81925 -0.865284,0.21422 -0.798961,0.11272 0.110184,-0.16864 2.629946,-0.81387 5.740677,-1.26452 9.802582,-1.4201 3.160207,-0.12104 8.055531,0.13254 11.522901,0.59688 1.467243,0.19649 3.828256,0.61325 5.866981,1.03562 3.372325,0.69864 5.75966,1.08806 8.580898,1.39969 3.139678,0.34681 5.48748,0.45996 8.812538,0.42471 2.41401,-0.0255 3.40567,-0.0784 5.35454,-0.28473 4.72554,-0.50052 6.3995,-0.98935 7.16987,-1.09085 0.19974,-0.0263 -3.00058,0.6333 -4.80469,1.01248 -1.80411,0.37917 -4.8025,0.86355 -7.6184,1.02309 -1.739565,0.0986 -5.657277,0.10805 -7.203414,0.0175 z"
       id="path186-2-44"
       sodipodi:nodetypes="ccsssscssscsszscc" />
  </g>
</svg>
