<?xml version="1.0" encoding="UTF-8" standalone="no"?>
<!-- Created with Inkscape (http://www.inkscape.org/) -->

<svg
   width="123.785mm"
   height="78.486mm"
   viewBox="0 0 123.785 78.486"
   version="1.1"
   id="svg1"
   inkscape:version="1.4 (e7c3feb1, 2024-10-09)"
   sodipodi:docname="logo_src.svg"
   inkscape:export-filename="logo_taq_vfinal.pdf"
   inkscape:export-xdpi="96"
   inkscape:export-ydpi="96"
   xmlns:inkscape="http://www.inkscape.org/namespaces/inkscape"
   xmlns:sodipodi="http://sodipodi.sourceforge.net/DTD/sodipodi-0.dtd"
   xmlns="http://www.w3.org/2000/svg"
   xmlns:svg="http://www.w3.org/2000/svg">
  <sodipodi:namedview
     id="namedview1"
     pagecolor="#ffffff"
     bordercolor="#000000"
     borderopacity="0.25"
     inkscape:showpageshadow="2"
     inkscape:pageopacity="0.0"
     inkscape:pagecheckerboard="0"
     inkscape:deskcolor="#d1d1d1"
     inkscape:document-units="mm"
     showguides="true"
     inkscape:zoom="1.6356061"
     inkscape:cx="216.43353"
     inkscape:cy="126.86429"
     inkscape:window-width="1792"
     inkscape:window-height="982"
     inkscape:window-x="0"
     inkscape:window-y="25"
     inkscape:window-maximized="0"
     inkscape:current-layer="g2">
    <sodipodi:guide
       position="63.917535,64.787358"
       orientation="0,-1"
       id="guide1"
       inkscape:locked="false" />
    <sodipodi:guide
       position="52.850795,48.544709"
       orientation="1,0"
       id="guide2"
       inkscape:locked="false" />
  </sodipodi:namedview>
  <defs
     id="defs1">
    <rect
       x="423.55432"
       y="511.75717"
       width="103.29971"
       height="45.944069"
       id="rect173-4-8" />
  </defs>
  <g
     inkscape:label="Calque 1"
     inkscape:groupmode="layer"
     id="layer1"
     transform="translate(-54.785414,-81.289204)">
    <g
       id="g2"
       transform="translate(0.52916667,-0.52916663)">
      <g
         id="g279-6-7"
         style="fill:#17537b;fill-opacity:0.917647;stroke:none"
         transform="matrix(0.72742467,0,0,0.72742467,-136.65218,-438.38876)"
         inkscape:export-filename="../Documents/git/hugoplate/assets/images/logo.svg"
         inkscape:export-xdpi="300"
         inkscape:export-ydpi="300">
        <path
           style="opacity:1;mix-blend-mode:color-dodge;fill:#17537b;fill-opacity:0.917647;fill-rule:nonzero;stroke:none;stroke-width:0.173858;stroke-dasharray:none;stroke-opacity:1"
           d="m 302.95094,757.70291 c -1.96932,-1.52572 -4.98444,-4.65012 -6.08491,-6.30546 -1.95256,-2.93706 -2.90745,-5.92451 -3.0436,-9.52208 -0.16235,-4.29002 0.89129,-7.78706 3.4934,-11.59466 2.64116,-3.86475 8.43045,-7.87074 11.37445,-7.87074 0.81099,0 0.91513,0.0481 1.23354,0.57038 0.46722,0.7663 0.44972,1.43226 -0.0458,1.74275 -0.21719,0.13609 -1.22415,0.62685 -2.2377,1.09058 -5.37364,2.45861 -9.02131,6.76286 -10.00818,11.80965 -0.13896,0.71063 -0.18299,2.10383 -0.12757,4.03663 0.0912,3.18005 0.2907,4.08775 1.36126,6.19255 1.66246,3.26853 5.28081,6.83386 8.64208,8.51543 0.67793,0.33916 1.19238,0.61665 1.14321,0.61665 -0.0491,0 -1.00509,0.43026 -2.12426,0.95613 l -2.03487,0.95613 z"
           id="path168-71-1" />
        <path
           style="opacity:1;mix-blend-mode:color-dodge;fill:#17537b;fill-opacity:0.917647;fill-rule:nonzero;stroke:none;stroke-width:0.173858;stroke-dasharray:none;stroke-opacity:1"
           d="m 291.66931,781.90228 c 0,-0.69401 0.73522,-4.45881 1.15084,-5.89302 0.88153,-3.042 2.89433,-6.04874 6.15641,-9.19653 3.31506,-3.19892 6.69735,-5.18197 14.80647,-8.68113 6.31878,-2.72661 8.57362,-4.06546 11.06727,-6.57137 2.33636,-2.34784 3.56848,-4.72079 4.13593,-7.96542 0.66875,-3.82385 -0.27138,-8.2618 -2.42014,-11.42436 -1.10369,-1.62443 -2.1575,-2.79904 -3.45169,-3.84737 -1.44134,-1.16751 -2.33271,-1.68758 -4.42569,-2.58213 -1.89516,-0.81001 -2.27309,-1.10271 -2.27309,-1.76045 0,-0.57509 1.03256,-1.57053 1.6291,-1.57053 0.94329,0 3.69909,1.11964 5.22995,2.12485 1.92354,1.26307 4.4162,3.61887 5.81739,5.49799 1.34068,1.79799 2.65457,4.50912 3.15265,6.50536 0.54106,2.16851 0.58138,7.06938 0.0736,8.9508 -1.00283,3.71595 -3.20985,7.12857 -6.22134,9.61979 -2.65044,2.19256 -4.55295,3.23951 -10.90993,6.00371 -5.59601,2.43331 -8.68819,3.96088 -10.53034,5.20211 -3.39746,2.28918 -5.98458,5.01596 -7.36643,7.76409 -0.78246,1.55608 -1.52387,4.21963 -1.69897,6.10363 -0.0965,1.03798 -0.16272,1.21366 -0.48127,1.27608 -0.20317,0.0398 -1.06046,0.22379 -1.90508,0.40885 -1.43784,0.31503 -1.53567,0.31726 -1.53567,0.035 z"
           id="path169-5-3" />
        <path
           style="opacity:1;mix-blend-mode:color-dodge;fill:#17537b;fill-opacity:0.917647;fill-rule:nonzero;stroke:none;stroke-width:0.184713;stroke-dasharray:none;stroke-opacity:1"
           d="m 331.32401,797.31745 c -0.54775,-0.22779 -2.09028,-1.05567 -2.23834,-1.20133 -0.0297,-0.0292 0.15038,-0.60164 0.40031,-1.27191 1.06354,-2.85226 1.35444,-4.58977 1.44493,-8.63051 0.0721,-3.22115 0.0346,-4.0356 -0.26022,-5.64695 -0.83407,-4.55857 -2.69233,-8.04119 -6.40747,-12.00844 -1.06731,-1.13974 -1.91484,-1.82666 -3.14111,-2.54586 l -1.67941,-0.98496 c -0.56952,-0.15293 -0.16815,-0.94585 2.07766,-3.4933 l 1.44038,1.14417 c 5.08327,4.0379 7.41406,6.95849 9.61273,12.04518 1.44359,3.33979 2.07942,6.90801 2.09021,11.73011 0.005,2.13956 -0.25888,3.74071 -1.2473,7.57442 -0.67826,2.63074 -1.01627,3.58032 -1.26818,3.56276 -0.11018,-0.008 -0.48107,-0.1307 -0.82419,-0.27338 z"
           id="path170-91-08"
           sodipodi:nodetypes="sssssssccsscscs" />
      </g>
      <text
         xml:space="preserve"
         id="text173-0-6"
         style="font-style:normal;font-variant:normal;font-weight:normal;font-stretch:normal;font-size:9.24883px;line-height:1.2;font-family:'.Apple Color Emoji UI';-inkscape-font-specification:'.Apple Color Emoji UI';text-align:start;writing-mode:lr-tb;direction:ltr;white-space:pre;shape-inside:url(#rect173-4-8);display:inline;fill:#17537b;fill-opacity:1"
         transform="matrix(0.75939118,0,0,0.76634247,-209.31531,-278.88577)"><tspan
           x="423.55469"
           y="519.82528"
           id="tspan8"><tspan
             style="font-family:Optima;-inkscape-font-specification:Optima"
             id="tspan2">Table sur l’ADN 
</tspan></tspan><tspan
           x="423.55469"
           y="531.12984"
           id="tspan10"><tspan
             style="font-family:Optima;-inkscape-font-specification:Optima"
             id="tspan9">environnemental 
</tspan></tspan><tspan
           x="423.55469"
           y="542.43441"
           id="tspan12"><tspan
             style="font-family:Optima;-inkscape-font-specification:Optima"
             id="tspan11">du Québec </tspan></tspan></text>
      <g
         id="text174-9-5"
         style="font-size:26.6667px;font-family:'.Apple Color Emoji UI';-inkscape-font-specification:'.Apple Color Emoji UI';white-space:pre;fill:#17537b"
         transform="matrix(0.72742467,0,0,0.72742467,-197.62485,-281.56074)"
         aria-label="TAQ">
        <path
           style="font-size:21.3333px;font-family:Marion;-inkscape-font-specification:Marion;stroke-width:1.25545"
           d="m 429.74835,537.36604 v -0.82048 c 1.87099,0 2.80648,-0.83868 2.80648,-2.5161 v -12.60782 c 0,-0.67461 -0.42841,-1.01192 -1.28522,-1.01192 -1.15406,0 -2.08955,0.39201 -2.80648,1.176 -0.71691,0.76578 -1.25023,1.93266 -1.59996,3.50066 l -0.81309,-0.21878 0.70818,-5.82532 c 0.40218,0.0548 0.77813,0.10025 1.12784,0.13674 0.3672,0.0364 0.71692,0.0548 1.04915,0.0548 h 10.09809 c 0.3672,0 0.74315,-0.0183 1.12784,-0.0548 0.38469,-0.0364 0.77811,-0.0821 1.18028,-0.13674 v 5.71592 l -0.70816,0.10934 c -0.20983,-2.9172 -1.6087,-4.37581 -4.19661,-4.37581 -0.8743,0 -1.31145,0.30995 -1.31145,0.92985 v 12.60783 c 0,1.67741 0.94424,2.51611 2.83272,2.51611 v 0.82046 z m 20.64205,0 v -0.82048 c 0.24481,-0.0364 0.49835,-0.0729 0.76064,-0.10934 0.27977,-0.0365 0.52457,-0.0821 0.7344,-0.13674 0.22731,-0.0548 0.41092,-0.11855 0.55081,-0.19146 0.15737,-0.0912 0.23606,-0.19143 0.23606,-0.30083 -0.0175,-0.0729 -0.035,-0.17317 -0.0525,-0.30083 0,-0.14587 -0.0437,-0.31908 -0.13115,-0.51963 l -1.18029,-3.36391 c -0.19235,-0.47405 -0.72567,-0.71107 -1.59997,-0.71107 h -3.90808 c -0.66446,0 -1.06663,0.23702 -1.20652,0.71107 l -0.89177,2.84429 c -0.0699,0.1641 -0.10489,0.40112 -0.10489,0.71106 0,0.83871 0.76938,1.25805 2.30814,1.25805 v 0.92987 h -5.90149 v -0.92987 c 0.50709,-0.0365 0.9355,-0.21882 1.28522,-0.54697 0.3672,-0.32819 0.6732,-0.80225 0.91801,-1.42214 l 6.27524,-15.447 0.80653,0.13163 6.21622,16.24523 c 0.24481,0.38288 0.43715,0.61991 0.57704,0.71105 0.035,0.0364 0.17488,0.0912 0.41965,0.1641 0.26229,0.0548 0.62075,0.14589 1.07538,0.27349 v 0.82048 z m -2.28191,-14.68638 -2.30813,5.74329 c -0.19235,0.43759 -0.28852,0.74754 -0.28852,0.92985 0,0.2735 0.32349,0.41025 0.97047,0.41025 h 3.30482 c 0.52457,0 0.78686,-0.10939 0.78686,-0.32818 0,-0.0912 -0.0962,-0.39201 -0.2885,-0.90252 z"
           id="path375-93"
           sodipodi:nodetypes="ccssscccccssscccsssccccccccccccssccsccccccccccccccccsssscc" />
        <path
           style="font-weight:500;font-size:24px;font-family:Cochin;-inkscape-font-specification:'Cochin Medium'"
           d="m 477.35731,536.43518 q -0.672,0.864 -1.248,1.56 -0.552,0.696 -1.2,1.152 -0.648,0.48 -1.488,0.72 -0.816,0.264 -1.992,0.264 -0.888,0 -1.704,-0.264 -0.792,-0.24 -1.56,-0.624 -0.768,-0.384 -1.536,-0.84 -0.744,-0.456 -1.512,-0.84 -0.768,-0.384 -1.608,-0.648 -0.816,-0.24 -1.704,-0.24 -0.576,0 -1.128,0.192 -0.552,0.192 -1.056,0.456 l -0.336,-0.384 q 0.84,-0.528 1.608,-0.768 0.792,-0.216 1.8,-0.216 1.32,0 2.64,0.384 1.344,0.408 2.616,0.864 1.272,0.48 2.448,0.864 1.2,0.384 2.232,0.384 0.768,0 1.368,-0.168 0.6,-0.144 1.104,-0.456 0.504,-0.312 0.936,-0.768 0.456,-0.432 0.912,-1.008 z m -19.416,-9.144 q 0,-1.944 0.696,-3.48 0.72,-1.536 1.92,-2.592 1.2,-1.08 2.808,-1.632 1.632,-0.576 3.456,-0.576 1.824,0 3.432,0.576 1.632,0.552 2.832,1.632 1.2,1.056 1.896,2.592 0.72,1.536 0.72,3.48 0,1.944 -0.72,3.48 -0.696,1.536 -1.896,2.616 -1.2,1.056 -2.832,1.632 -1.608,0.552 -3.432,0.552 -1.824,0 -3.456,-0.552 -1.608,-0.576 -2.808,-1.632 -1.2,-1.08 -1.92,-2.616 -0.696,-1.536 -0.696,-3.48 z m 2.544,0 q 0,1.464 0.432,2.808 0.432,1.344 1.248,2.376 0.816,1.008 1.992,1.632 1.176,0.6 2.664,0.6 1.488,0 2.664,-0.6 1.176,-0.624 1.992,-1.632 0.816,-1.032 1.248,-2.376 0.432,-1.344 0.432,-2.808 0,-1.464 -0.432,-2.808 -0.432,-1.344 -1.248,-2.352 -0.816,-1.032 -1.992,-1.632 -1.176,-0.624 -2.664,-0.624 -1.488,0 -2.664,0.624 -1.176,0.6 -1.992,1.632 -0.816,1.008 -1.248,2.352 -0.432,1.344 -0.432,2.808 z"
           id="path376-6" />
      </g>
      <path
         style="fill:#afdde9;fill-opacity:1;stroke:none;stroke-width:0.127667"
         d="m 82.136236,100.81325 c -0.584007,-0.66836 -0.557833,-1.103856 0.09194,-1.529617 0.287203,-0.188053 1.235481,-0.216646 9.111365,-0.273557 l 8.790799,-0.06324 0.33151,0.331486 c 0.41411,0.414131 0.42204,0.861998 0.0234,1.325448 l -0.30806,0.35819 -8.918102,0.0429 c -8.522633,0.0407 -8.927182,0.0327 -9.122904,-0.19136 z"
         id="path179-3-51" />
      <path
         style="fill:#afdde9;fill-opacity:1;stroke:none;stroke-width:0.127667"
         d="m 83.899171,95.155577 c -0.446594,-0.530812 -0.430074,-0.759666 0.09128,-1.264992 l 0.432139,-0.41886 6.42997,-0.02199 c 3.536484,-0.011 6.704069,0.02474 7.039077,0.08275 1.017113,0.173482 1.428679,0.947609 0.870384,1.637223 l -0.24403,0.301381 -7.138966,0.04426 -7.138968,0.04426 z"
         id="path180-5-89" />
      <path
         style="fill:#afdde9;fill-opacity:1;stroke:none;stroke-width:0.127667"
         d="m 87.937803,111.38191 c -0.686382,-0.44366 -1.060161,-0.83096 -1.060161,-1.09841 0,-0.0437 0.199216,-0.16194 0.442732,-0.26366 0.34463,-0.14407 1.101393,-0.18421 3.415098,-0.18119 1.928512,0 2.899856,0.0465 2.765901,0.12455 -0.315666,0.18448 -4.151965,1.77018 -4.484361,1.85354 -0.207629,0.0522 -0.521208,-0.0742 -1.079209,-0.43483 z"
         id="path182-7-0" />
      <path
         style="fill:#afdde9;fill-opacity:1;stroke:none;stroke-width:0.127667"
         d="m 83.717677,106.22816 c -0.469384,-0.50286 -0.497905,-0.95243 -0.08759,-1.38072 l 0.358985,-0.37471 h 7.229256 7.229262 l 0.343047,0.35811 c 0.402419,0.42001 0.428599,0.7361 0.09672,1.16789 -0.348923,0.45399 -1.112421,0.49966 -8.508534,0.50884 l -6.393022,0.008 z"
         id="path183-7-9" />
      <path
         style="fill:#afdde9;fill-opacity:1;stroke:none;stroke-width:0.728567;stroke-dasharray:none"
         d="m 104.35182,146.90317 c -1.15091,-0.13298 -3.2925,-0.64379 -4.898984,-1.16851 -1.974036,-0.64477 -5.014388,-2.24116 -8.043028,-4.22311 -3.632388,-2.37705 -4.34167,-2.7921 -6.155307,-3.60193 -2.234031,-0.99755 -4.37898,-1.71147 -6.033355,-2.00813 -2.136301,-0.38309 -6.516569,-0.47364 -8.32048,-0.172 -1.653662,0.27651 -3.204902,0.78165 -4.688441,1.52673 -0.638322,0.32059 -1.192285,0.58289 -1.231021,0.58289 -0.23383,0 0.91051,-1.22866 1.663031,-1.78558 2.103581,-1.55677 2.531693,-1.72185 5.615493,-2.16529 3.555637,-0.5113 6.560934,-0.47506 10.071544,0.12142 3.511061,0.59655 6.099652,1.81094 12.078712,5.66652 5.251799,3.38661 11.100096,5.26534 15.603446,5.01254 2.57609,-0.14461 4.60758,-0.69145 7.18518,-1.93408 1.74765,-0.84253 3.20206,-1.78834 4.17065,-2.71223 0.40949,-0.39059 0.74352,-0.65833 0.74227,-0.59498 -2.18731,2.89687 -2.8306,3.27299 -5.80852,5.20745 -3.27454,2.12714 -5.83295,2.22932 -8.93476,2.3086 -1.12348,0.0287 -2.48086,0.001 -3.01643,-0.0603 z"
         id="path185-4-2"
         sodipodi:nodetypes="ssssssssccssssscssss" />
      <path
         style="fill:#d4aa00;fill-opacity:1;stroke:none;stroke-width:0.728567;stroke-dasharray:none"
         d="m 99.887193,151.12652 c -3.786856,-0.72919 -7.544463,-2.40945 -11.030733,-4.93256 -4.804691,-3.47726 -6.559101,-4.43847 -10.355508,-5.67357 -3.700395,-1.20387 -7.678877,-1.35832 -10.89987,-0.42315 -1.651748,0.47956 -3.964319,1.67136 -5.210644,2.68533 -0.863046,0.70214 -0.796894,0.36944 0.109899,-0.55276 2.623144,-2.66771 5.725829,-4.14486 9.777228,-4.65482 3.152033,-0.39674 8.034696,0.43443 11.493098,1.95646 1.463448,0.64406 3.818354,2.0101 5.851805,3.39452 3.363604,2.29002 5.744763,3.56645 8.558704,4.58791 3.131558,1.13676 5.473288,1.50765 8.789738,1.39213 2.40777,-0.0839 3.39686,-0.25671 5.34069,-0.93331 4.71332,-1.64061 6.38294,-3.24291 7.15132,-3.57558 0.19923,-0.0863 -2.99282,2.07581 -4.79226,3.3187 -1.79944,1.24289 -4.79007,2.83056 -7.59869,3.35349 -1.73506,0.32304 -5.64264,0.35417 -7.184777,0.0573 z"
         id="path186-2-44"
         sodipodi:nodetypes="ccsssscssscsszscc" />
      <path
         style="fill:#d4aa00;fill-opacity:1;stroke:none;stroke-width:0.075;stroke-dasharray:none"
         d="m 91.367952,143.39826 c -0.05573,-0.0619 -0.06824,-0.46744 -0.06488,-2.14316 0.003,-2.06595 0.003,-2.06595 -1.070967,-3.17461 -1.647159,-1.69911 -1.527555,-1.61322 -2.253671,-1.61641 -0.333806,0 -0.642831,-0.0192 -0.686762,-0.0313 -0.06343,-0.022 -0.0799,0.0165 -0.08111,0.13444 -0.003,0.64392 -1.143403,0.70138 -1.292496,0.0654 -0.149426,-0.63734 0.652203,-1.06973 1.201356,-0.6479 0.07899,0.0605 0.795017,-0.0544 0.893599,-0.14324 0.05746,-0.0575 -0.513337,-0.53895 -0.693303,-0.58528 -0.551525,-0.14269 -1.422099,-0.0605 -1.63085,0.15424 -0.541697,0.55786 -1.385088,0.2018 -1.204105,-0.50832 0.131967,-0.51787 0.73019,-0.66968 1.216073,-0.30851 0.178431,0.13225 0.189538,0.1339 0.989086,0.15892 0.939447,0.0297 0.968233,0.0379 1.347343,0.44338 0.146951,0.15699 0.539255,0.52009 0.871775,0.80693 0.332448,0.28675 0.819538,0.75963 1.082415,1.05068 1.478468,1.6373 1.3074,1.53247 1.312049,0.8033 0.0022,-0.312 0.01705,-0.6442 0.03541,-0.73803 0.03558,-0.19108 -1.58644,-1.81981 -2.727063,-2.73855 -0.58517,-0.47146 -4.297894,-0.74358 -4.464874,-0.32712 -0.255055,0.63562 -1.325441,0.33388 -1.193377,-0.33638 0.09383,-0.47725 0.659164,-0.67416 1.089428,-0.37998 0.140078,0.0962 0.192398,0.0984 1.900795,0.10612 1.756907,0.008 1.756907,0.008 1.283003,-0.40393 -0.496204,-0.43123 -3.146308,-0.71202 -3.650521,-0.38672 -0.316241,0.204 -0.697281,0.0927 -0.848991,-0.24661 -0.203918,-0.45719 0.451156,-0.8033 0.875426,-0.46249 0.165454,0.13197 0.165454,0.13197 1.228145,0.16001 1.491056,0.0379 1.440971,0.0632 0.916774,-0.42213 -0.498051,-0.46038 -0.481984,-0.45436 -1.240949,-0.46643 -0.320008,-0.0192 -0.820435,-0.0283 -1.111943,-0.0509 -0.530006,-0.0415 -0.530006,-0.0415 -0.715916,0.1086 -0.598627,0.48985 -1.433704,-0.0247 -1.105984,-0.66333 0.228771,-0.45554 0.834488,-0.5042 1.180538,-0.096 0.114619,0.13554 1.333835,0.27664 1.839796,0.21335 0.0022,0 -0.380603,-0.39049 -0.855648,-0.86681 -0.863612,-0.86585 -0.863612,-0.86585 -1.037554,-0.74584 -0.63935,0.44127 -1.46539,-0.26476 -1.086068,-0.92825 0.286394,-0.50085 1.391141,-0.28791 1.389272,0.26751 -4.59e-4,0.0641 0.320678,0.39606 0.949688,0.98085 0.950156,0.88316 0.950156,0.88316 0.983989,0.53691 0.06378,-0.65409 0.04734,-1.11994 -0.03995,-1.12029 -0.522858,0 -0.875616,-0.66174 -0.544674,-1.01827 0.43196,-0.46519 1.273111,0.17431 1.154139,0.87852 -0.248704,1.47157 0.04388,2.51871 0.776511,2.77891 0.104557,0.0379 0.05966,-1.66087 -0.04743,-1.78657 -0.230229,-0.27081 -0.03063,-0.61511 0.355273,-0.61335 0.375387,0 0.486735,0.21445 0.31918,0.60945 -0.358751,0.84613 -0.146182,2.29398 0.4133,2.8144 0.645182,0.60039 0.614521,0.61444 0.619335,-0.28503 0.003,-0.51464 0.003,-0.51588 -0.17307,-0.74435 -0.383027,-0.49823 -0.04096,-1.04111 0.565971,-0.89823 0.465268,0.11052 0.595108,0.60405 0.236689,0.9015 -0.18305,0.15562 -0.18305,0.15562 -0.152917,1.09338 0.03854,1.12874 -0.15146,0.83437 1.55476,2.40742 1.337772,1.23362 1.337772,1.23362 1.340928,0.65214 0.003,-0.58137 0.003,-0.58137 -0.958368,-1.48656 -1.046778,-0.98547 -1.129035,-1.0873 -1.077331,-1.33295 0.02749,-0.12757 0.0071,-0.1985 -0.09779,-0.34537 -0.18162,-0.25377 -0.156299,-0.44119 0.0788,-0.58492 0.494757,-0.30232 0.97378,0.20097 0.628858,0.66116 -0.189868,0.25348 -0.05114,0.47288 0.819596,1.29713 0.645517,0.61081 0.612421,0.62836 0.617556,-0.32442 0.0044,-0.8281 0.0044,-0.8281 -1.745304,-2.48583 -0.962294,-0.91176 -2.257985,-2.14643 -2.879242,-2.74364 -1.281837,-1.23246 -1.130825,-1.1449 -1.990198,-1.15499 -0.358503,-0.0192 -0.738663,-0.0319 -0.844567,-0.0619 -0.183985,-0.0509 -0.198474,-0.0473 -0.324781,0.0888 -0.621883,0.66973 -1.6542,0.11162 -1.236448,-0.66925 0.227094,-0.424 0.940794,-0.41259 1.239307,0.022 0.100406,0.14599 0.100406,0.14599 0.774416,0.15094 0.790195,0.022 0.789285,0.0371 0.01897,-0.66616 -0.453614,-0.41515 -0.453614,-0.41515 -0.753838,-0.40657 -0.734479,0.0192 -1.064527,-0.86032 -0.449256,-1.19967 0.598328,-0.33039 1.296263,0.16551 1.082066,0.76912 -0.03921,0.10997 0.720433,0.84759 0.817712,0.79318 0.162265,-0.0916 0.07099,-1.23365 -0.113574,-1.42269 -0.358504,-0.36693 -0.130346,-0.86747 0.370688,-0.81328 0.469371,0.0517 0.670451,0.47654 0.388356,0.82287 -0.32825,0.403 -0.18338,1.92019 0.221156,2.3159 0.440659,0.43071 0.433428,0.43994 0.45859,-0.58157 0.0198,-0.79356 0.0198,-0.79356 -0.147446,-0.96944 -0.40276,-0.4235 0.180136,-1.06619 0.723853,-0.79791 0.329284,0.16304 0.351905,0.54418 0.04924,0.83165 -0.147116,0.13966 -0.261268,1.94121 -0.142909,2.25692 0.08919,0.23754 0.831904,0.99127 0.875679,0.88839 0.146016,-0.34224 0.05746,-1.78792 -0.119568,-1.95153 -0.488654,-0.45188 0.111842,-1.1427 0.733935,-0.84476 0.384946,0.18448 0.382596,0.86098 -0.003,0.9712 -0.324599,0.0927 -0.14016,2.36761 0.220909,2.72552 0.362113,0.35912 0.467808,0.44814 0.534375,0.4507 0.09323,0.0192 -0.01017,-1.90848 -0.113712,-2.11413 -0.206364,-0.40843 0.177249,-0.7835 0.656632,-0.6418 0.2843,0.0825 0.320591,0.49037 0.0659,0.73666 -0.35088,0.33957 -0.173235,2.45297 0.240208,2.85407 1.545173,1.49957 1.398648,1.57457 1.410992,-0.72073 0.01127,-2.06865 0.01127,-2.06865 -1.461736,-3.44007 -3.142366,-2.92578 -3.306649,-3.06836 -3.510305,-3.04669 -0.625257,0.0668 -1.021116,-0.74312 -0.565289,-1.15637 0.509763,-0.46155 1.320094,-0.0165 1.159805,0.64092 -0.04053,0.16496 0.659272,0.95322 0.848032,0.95402 0.0154,1.4e-4 0.02474,-0.26558 0.02254,-0.59053 -0.0022,-0.32499 -0.003,-0.61422 -5.97e-4,-0.64304 0.0091,-0.0924 0.285892,-0.16908 0.402622,-0.11162 0.165537,0.0825 0.195175,0.17678 0.143928,0.4593 -0.0893,0.49246 -0.03739,1.26324 0.09576,1.42242 0.909339,1.08719 1.545676,1.54416 1.561949,1.12184 0.01567,-0.40097 0.0058,-0.44883 -0.110523,-0.60887 -0.351573,-0.47923 0.118798,-0.99847 0.579764,-0.63985 0.189483,0.14819 0.211863,0.403 0.05128,0.58792 -0.320511,0.36931 -0.13348,1.41744 0.333977,1.87259 0.438096,0.42628 0.438096,0.42628 0.445176,-0.98121 0.0071,-1.40779 0.0071,-1.40779 -0.900924,-2.2586 -0.499274,-0.46788 -1.044938,-0.98929 -1.212551,-1.1587 -0.28982,-0.293 -0.310531,-0.30509 -0.426728,-0.24689 -0.586423,0.29404 -1.25902,-0.40786 -0.846424,-0.88322 0.40505,-0.46659 1.259521,-0.25816 1.260533,0.3077 1.4e-5,0.19356 0.01842,0.21638 0.389381,0.5215 0.214035,0.17485 0.681459,0.60485 1.03883,0.95437 0.357332,0.34938 0.668889,0.6423 0.692261,0.65104 0.236387,0.0861 0.02419,-1.2367 -0.240181,-1.49734 -0.158966,-0.15726 -0.432464,-0.4361 -0.607192,-0.62049 -0.234077,-0.24744 -0.350654,-0.33534 -0.443488,-0.33578 -0.59125,0 -0.797672,-0.84154 -0.268416,-1.08903 0.558588,-0.26119 1.050932,0.16276 0.865155,0.7446 -0.04198,0.12922 0.630967,0.93611 0.715704,0.85757 0.161055,-0.14819 0.03753,-1.52228 -0.152203,-1.69526 -0.643515,-0.58726 0.251234,-1.43086 0.956892,-0.90239 0.251755,0.18861 0.209691,0.69231 -0.07676,0.91737 -0.181951,0.14296 -0.181951,0.14296 -0.184947,0.94885 -0.003,0.80591 -0.003,0.80591 0.398811,0.42787 0.401355,-0.37789 0.401355,-0.37789 0.306346,-0.55052 -0.265227,-0.48229 0.301722,-0.96705 0.848956,-0.72626 0.501285,0.22049 0.383506,0.93567 -0.175489,1.0661 -0.550619,0.12895 -1.434271,1.30915 -1.439835,1.9239 -0.003,0.33396 0.0143,0.58791 0.04036,0.57934 0.02392,-0.0192 0.248071,-0.21253 0.496154,-0.45342 0.247357,-0.24139 0.730341,-0.68808 1.073199,-0.99309 0.571945,-0.50903 0.622975,-0.56861 0.623846,-0.72428 0.003,-0.65019 1.117499,-0.77938 1.244188,-0.14351 0.104227,0.52278 -0.255742,0.85116 -0.793221,0.72392 -0.158966,-0.0379 -0.209664,-0.0341 -0.240869,0.0165 -0.02172,0.0349 -0.416575,0.41179 -0.877631,0.83681 -1.601534,1.47666 -1.50379,1.3266 -1.549234,2.38196 -0.08201,1.90745 -0.06895,1.93349 0.616575,1.22854 0.190968,-0.19603 0.351883,-1.38995 0.210048,-1.55654 -0.331994,-0.39048 0.213843,-0.79878 0.572303,-0.42779 0.160368,0.16578 0.176974,0.26613 0.06815,0.40707 -0.04336,0.0544 -0.08979,0.27517 -0.112227,0.53086 -0.03973,0.4532 0.299792,0.3192 0.753516,-0.29692 0.07706,-0.10448 0.324192,-0.34554 0.549367,-0.53541 0.408775,-0.34589 0.408775,-0.34589 0.44957,-1.20264 0.04052,-0.8566 0.04052,-0.8566 0.192397,-0.86826 0.288773,-0.022 0.304667,0.0192 0.282584,0.68348 -0.01182,0.33215 -0.01127,0.604 7.26e-4,0.604 0.22451,0 0.878322,-0.78328 0.87955,-1.05593 0.003,-0.54316 0.421799,-0.85051 0.919094,-0.67397 0.703058,0.24964 0.497559,1.24129 -0.260608,1.25773 -0.321069,0.0165 -0.451679,0.11327 -2.991956,2.43351 -2.357903,2.15347 -2.115655,1.81769 -2.12861,2.95247 -0.0071,0.52936 7.26e-4,0.97178 0.0121,0.98341 0.03258,0.0305 1.685023,-1.54025 1.704829,-1.61974 0.008,-0.0349 -0.04176,-0.14406 -0.112557,-0.24111 -0.290505,-0.39563 -0.08435,-0.89515 0.368368,-0.89312 0.396731,0 0.58722,0.43261 0.373438,0.8441 -0.05732,0.10942 -0.119046,0.3165 -0.137906,0.45913 -0.03236,0.24579 -0.04743,0.26806 -0.280582,0.4159 -1.125211,0.71273 -1.918633,1.7197 -1.95118,2.47615 -0.03624,0.8417 -0.03811,0.83761 0.264925,0.53405 0.120421,-0.12014 0.80329,-0.75708 1.517999,-1.41491 1.516046,-1.3949 1.367231,-1.10677 1.382338,-2.66739 0.0091,-0.95663 0.0091,-0.95663 -0.173097,-1.12539 -0.340408,-0.31477 -0.151295,-0.83472 0.324096,-0.89072 0.575953,-0.0685 0.872429,0.55058 0.441431,0.92119 -0.124104,0.10942 -0.124104,0.10942 -0.13172,1.07603 -0.0058,0.96798 -0.0058,0.96798 0.41368,0.56287 0.231026,-0.22242 0.439779,-0.43602 0.464474,-0.47355 0.155722,-0.24139 0.09931,-2.25851 -0.0659,-2.35133 -0.236525,-0.13252 -0.267565,-0.478 -0.06082,-0.67389 0.47524,-0.44913 1.190815,0.10668 0.828885,0.64442 -0.102577,0.15231 -0.172162,1.81631 -0.07594,1.81689 0.01897,-2.8e-4 0.140243,-0.0979 0.266849,-0.22132 0.127542,-0.1218 0.284858,-0.25129 0.34909,-0.28821 0.200701,-0.11465 0.24623,-1.87051 0.05392,-2.08196 -0.476728,-0.5241 0.2619,-1.13514 0.786323,-0.65032 0.25599,0.23671 0.260086,0.39332 0.01622,0.60768 -0.178019,0.15534 -0.178019,0.15534 -0.1814,0.79915 -0.003,0.64246 -0.003,0.64246 0.429579,0.28326 0.315602,-0.26201 0.422682,-0.37869 0.395052,-0.43019 -0.25184,-0.46999 0.29539,-1.03781 0.850927,-0.88258 0.824507,0.23011 0.563477,1.38131 -0.29236,1.28899 -0.196417,-0.022 -1.230278,0.77019 -1.327244,1.01563 -0.05595,0.14379 1.453404,0.008 1.621644,-0.14352 0.418057,-0.37877 1.150457,-0.0962 1.147597,0.44366 -0.004,0.668 -0.95387,0.90747 -1.221457,0.30801 -0.085,-0.19053 -2.064118,-0.17816 -2.238272,0.0137 -0.05127,0.0553 -0.475182,0.45515 -0.941899,0.88652 -0.467135,0.43063 -1.119594,1.04291 -1.450434,1.36021 -0.331049,0.31663 -1.238279,1.1571 -2.016382,1.86709 -1.414841,1.29081 -1.414841,1.29081 -1.398898,3.02811 0.008,0.95547 0.02502,1.74582 0.03602,1.75607 0.01155,0.0165 0.392395,-0.33192 0.847488,-0.76043 0.455205,-0.42862 1.102069,-1.02569 1.437767,-1.32669 0.68717,-0.61643 0.671245,-0.57351 0.689061,-1.90825 0.0071,-0.54827 0.0044,-0.56405 -0.116626,-0.63738 -0.281391,-0.16991 -0.265778,-0.67309 0.02667,-0.86164 0.583294,-0.37671 1.254817,0.34612 0.755781,0.81378 -0.153302,0.14324 -0.309208,1.54759 -0.172052,1.55073 0.01127,0 0.247714,-0.21225 0.534031,-0.47204 0.56409,-0.51145 0.842874,-2.27616 0.423965,-2.68048 -0.231465,-0.22324 -0.13972,-0.62987 0.165675,-0.73448 0.482028,-0.16468 0.965502,0.4342 0.600691,0.74465 -0.123994,0.10943 -0.127348,0.11823 -0.131142,0.86456 -0.0044,0.71141 0.02529,0.86353 0.133039,0.69142 0.05202,-0.0833 0.411308,-0.42699 0.618662,-0.59198 0.212688,-0.16661 0.258986,-1.73172 0.06373,-2.1056 -0.231328,-0.44316 0.27653,-0.98027 0.92738,-0.98087 0.729268,-0.0138 0.693588,1.03432 -0.03681,1.07289 -0.253158,0.0165 -0.253158,0.0165 -0.301758,0.72118 -0.0606,0.88286 -0.09636,0.86876 0.613619,0.23919 0.328027,-0.29118 0.762984,-0.6613 0.966054,-0.82293 0.223107,-0.17486 0.381067,-0.34122 0.398827,-0.41237 0.15536,-0.64219 0.90966,-0.83799 1.32912,-0.34488 0.51796,0.60887 -0.3502,1.40678 -1.01808,0.93568 -0.17819,-0.12537 -0.17819,-0.12537 -0.2436,-0.0192 -0.0361,0.0605 -0.439737,0.43486 -0.897164,0.83106 -0.919147,0.79574 -0.922644,0.80099 -0.616938,0.77836 0.118298,-0.0165 0.550718,-0.0278 0.960895,-0.0415 0.745687,-0.0247 0.745687,-0.0247 0.847387,-0.17431 0.30933,-0.45331 1.06636,-0.28013 1.14453,0.26146 0.0873,0.60551 -0.60864,0.9613 -1.06155,0.54258 -0.20546,-0.18998 -0.20546,-0.18998 -0.53719,-0.16386 -0.18239,0.0165 -0.775774,0.0465 -1.318515,0.069 -0.929162,0.0379 -1.82454,0.44971 -1.826643,0.83698 -7.29e-4,0.13306 2.416201,0.0283 2.594891,-0.12345 0.32826,-0.25706 0.657847,-0.24221 0.846647,0.0443 0.34567,0.5246 -0.30226,1.11543 -0.789547,0.71985 -0.441427,-0.35834 -3.242035,-0.13884 -3.72017,0.29184 -0.409795,0.36858 -0.409795,0.36858 -0.09202,0.40088 0.748476,0.077 3.271343,0 3.461623,-0.0943 0.438897,-0.23424 0.955884,0.0349 0.953374,0.49573 -0.003,0.60972 -0.954864,0.80803 -1.110054,0.23094 -0.0313,-0.11547 -0.0313,-0.11547 -2.081754,-0.12481 -2.05059,-0.008 -2.05059,-0.008 -3.676035,1.4598 -1.625365,1.46911 -1.625365,1.46911 -1.62853,2.25123 -0.0044,0.87349 -0.07503,0.89886 1.237125,-0.44011 0.260911,-0.26668 0.776206,-0.7413 1.14477,-1.05568 0.860981,-0.73443 1.033729,-0.92466 1.041986,-1.14804 0.0071,-0.17211 0.0071,-0.17211 1.094525,-0.20345 1.088227,-0.0319 1.088227,-0.0319 1.249084,-0.1897 0.480549,-0.47283 1.343263,-0.0841 1.20991,0.545 -0.140711,0.66346 -0.980575,0.79637 -1.31026,0.20785 -0.08333,-0.14957 -0.112777,-0.16579 -0.255715,-0.15039 -0.0888,0.0165 -0.456203,0.03 -0.816409,0.0443 -0.722995,0.0283 -0.624641,-0.0192 -1.015449,0.40822 -0.115994,0.12372 -0.160891,0.20785 -0.11165,0.20812 0.01265,0 0.165041,0.0509 0.344966,0.10998 0.327057,0.1097 0.327057,0.1097 0.489148,-0.022 0.339556,-0.27831 0.960967,-0.13251 1.070843,0.24854 0.23647,0.81996 -0.900522,1.23569 -1.237894,0.45254 -0.08009,-0.18585 -0.08009,-0.18585 -0.705428,-0.1886 -0.771166,0 -0.71778,-0.0341 -1.789334,0.99149 -1.821041,1.7413 -1.647443,1.35076 -1.660208,3.73415 -0.01017,1.855 -0.02144,2.11717 -0.09133,2.18096 -0.103705,0.0935 -0.244525,0.0915 -0.331649,-0.0192 z m -4.675986,-6.76636 c 0.110578,-0.12565 0.125342,-0.27136 0.03629,-0.36225 -0.143515,-0.14627 -0.294447,-0.10255 -0.351908,0.1031 -0.05361,0.19163 0.194927,0.39623 0.315521,0.25981 z m 10.080601,-0.0896 c 0.06991,-0.11327 0.06824,-0.13279 -0.01815,-0.22022 -0.16133,-0.16386 -0.432766,-0.10145 -0.433857,0.0992 -7.29e-4,0.2776 0.304246,0.35906 0.451554,0.12125 z m -11.487898,-1.30376 c 0.08281,-0.0767 0.07786,-0.29148 -0.01017,-0.35928 -0.125946,-0.0965 -0.304254,-0.0415 -0.322715,0.0982 -0.03258,0.24634 0.172575,0.40655 0.333133,0.26091 z m 13.031644,-0.03 c 0.06524,-0.0938 0.01182,-0.30152 -0.08911,-0.3371 -0.128064,-0.0473 -0.32924,0.0503 -0.330046,0.15616 -7.28e-4,0.25239 0.284256,0.37567 0.418923,0.18091 z M 83.7837,133.91962 c 0.07627,-0.18035 -0.01347,-0.34751 -0.189209,-0.34836 -0.178019,-7.4e-4 -0.264815,0.0759 -0.265887,0.23039 -7.26e-4,0.24689 0.360956,0.34059 0.454895,0.1174 z m 16.096223,0.094 c 0.207217,-0.10035 0.076,-0.39164 -0.16312,-0.36167 -0.13491,0.0165 -0.17945,0.16606 -0.0944,0.31345 0.062,0.10667 0.11533,0.11767 0.25753,0.0487 z m 0.332957,-1.66232 c 0.0148,-0.0247 -0.0154,-0.0654 -0.0691,-0.0929 -0.13716,-0.0685 -0.156187,-0.0632 -0.156457,0.0421 -4e-4,0.0979 0.168397,0.1339 0.225877,0.0509 z m -11.89123,-1.22461 c 0.06458,-0.0926 -0.03739,-0.22132 -0.175489,-0.22187 -0.106372,-7.4e-4 -0.123307,0.097 -0.04226,0.23727 0.05936,0.1031 0.139583,0.0982 0.217884,-0.0165 z m 6.964868,0.0509 c 5.53e-4,-0.1064 -0.09496,-0.19521 -0.211506,-0.19576 -0.09092,-6.6e-4 -0.133534,0.17788 -0.05878,0.24689 0.07423,0.0676 0.269736,0.0314 0.270176,-0.0509 z m -13.002113,-0.16166 c 0.206859,-0.10008 0.09051,-0.36866 -0.159956,-0.3699 -0.177304,0 -0.237019,0.14434 -0.124379,0.30281 0.08911,0.12647 0.138868,0.13719 0.284313,0.0668 z m 19.014895,0.0684 c 0.0358,-0.0278 0.0611,-0.10997 0.0616,-0.1754 7.3e-4,-0.23562 -0.25984,-0.32198 -0.36193,-0.11877 -0.10194,0.20235 0.13997,0.44016 0.30025,0.29516 z M 82.453494,128.8008 c 0.127431,-0.0998 0.118303,-0.28703 -0.01512,-0.41842 -0.14357,-0.14077 -0.262423,-0.13609 -0.393371,0.0165 -0.231823,0.26695 0.134332,0.62937 0.408618,0.40439 z m 18.840206,0.008 c 0.11231,-0.28945 -0.24158,-0.52468 -0.47339,-0.31433 -0.13809,0.12509 -0.13229,0.21334 0.0212,0.35529 0.17137,0.15891 0.38216,0.14022 0.45207,-0.0407 z m -2.633199,-0.29666 c 0.101037,-0.14021 0.1089,-0.37608 0.01375,-0.41011 -0.07371,-0.0247 -0.204605,0.0861 -0.355905,0.30691 -0.09295,0.13518 0.23924,0.24584 0.342619,0.096 z m -13.763303,-0.0797 c 0.177414,-0.061 0.008,-0.40569 -0.187256,-0.38072 -0.126167,0.0165 -0.239989,0.18805 -0.201416,0.31831 0.02529,0.0907 0.217967,0.1218 0.388606,0.0619 z m 15.664222,-1.30026 c 0.19413,-0.17651 -0.0129,-0.47981 -0.26595,-0.39217 -0.0774,0.0275 -0.11245,0.35274 -0.0445,0.41546 0.0546,0.0503 0.24472,0.0363 0.31051,-0.022 z m -17.52819,-0.18915 c 0.09315,-0.0852 0.09689,-0.11135 0.03178,-0.27136 -0.08292,-0.20263 -0.40542,-0.13692 -0.406578,0.0814 -7.29e-4,0.20482 0.229459,0.32153 0.374901,0.18943 z m 5.115075,-0.67164 c 0.147722,-0.13389 0.0606,-0.29761 -0.158388,-0.29863 -0.145412,-6.3e-4 -0.197649,0.10722 -0.123967,0.25734 0.06395,0.12977 0.167489,0.14434 0.282204,0.0399 z m -4.409546,-1.18215 c 0.184068,-0.15644 0.09232,-0.43244 -0.146236,-0.43354 -0.209911,0 -0.31595,0.0797 -0.315463,0.24716 -7.29e-4,0.25404 0.255522,0.35818 0.463115,0.18778 z m 16.225844,0.0946 c 0.117927,-0.10584 0.0764,-0.35875 -0.0671,-0.40945 -0.3064,-0.10805 -0.527357,0.10777 -0.35675,0.34779 0.0893,0.12647 0.31651,0.15946 0.42414,0.0619 z m -13.465884,-2.21163 c 0.127651,-0.11465 0.08223,-0.34708 -0.08495,-0.43335 -0.165509,-0.0861 -0.291571,-0.0319 -0.36387,0.14928 -0.101038,0.25569 0.241226,0.47267 0.448849,0.28464 z m 10.694305,0.022 c 0.08515,-0.0786 0.07676,-0.29476 -0.01732,-0.38139 -0.154787,-0.14269 -0.42625,-0.0517 -0.427333,0.14379 -7.29e-4,0.22985 0.284291,0.38293 0.444115,0.23809 z m -8.485531,-1.30274 c 0.203203,-0.19575 -0.0022,-0.43995 -0.289064,-0.34422 -0.153989,0.0509 -0.201965,0.25074 -0.08828,0.36712 0.120118,0.12262 0.234078,0.11465 0.377395,-0.022 z m 6.22572,-0.0786 c 7.29e-4,-0.16331 -0.0819,-0.24139 -0.258491,-0.24222 -0.161908,0 -0.231741,0.13032 -0.147694,0.27557 0.09254,0.16028 0.405184,0.13499 0.406114,-0.0335 z m -4.702371,-0.88696 c 0.11099,-0.12235 0.02172,-0.30996 -0.138841,-0.29388 -0.140105,0.0165 -0.205869,0.14792 -0.144477,0.29525 0.03607,0.0872 0.203505,0.0861 0.283461,-0.0165 z m 3.116099,-0.0192 c 0.04168,-0.11684 -0.13502,-0.28232 -0.257227,-0.24001 -0.07371,0.0247 -0.104172,0.25101 -0.04146,0.30916 0.07786,0.0731 0.264045,0.0278 0.298651,-0.0707 z m -1.580147,-0.93664 c 0.08152,-0.0517 0.108433,-0.15203 0.09678,-0.32282 -0.01787,-0.25541 -0.410065,-0.11547 -0.411489,0.14544 -7.28e-4,0.24056 0.123417,0.31111 0.31466,0.17705 z"
         id="path359-6-0"
         sodipodi:nodetypes="cscscsssscssscsssscsssssssssssccssscscssssssscsssssssssssssssssssscccsscccssssssssssssscssscssscssssssscsscssssscccsscsscssssssssscccsssssssscsssscsssscscsssscsccscsssssscsssscssssssscssssscscscssssscscssscsssssssssssssssscsssscccssssscsssccsssscsssccssccssscssscssccsssssscsssssssssssssssssssssssccsscssssscssscssccssccssssscscssccscscsscssssssssssssssssssscsssssssssssssssccsscccssssssssscsssscsccccc" />
      <g
         id="g283-2-2-1-5"
         style="fill:#17537b;fill-opacity:0.917647;stroke:none;stroke-width:1.00157;stroke-dasharray:none"
         transform="matrix(0.72742467,0,0,0.72742467,-290.2906,-128.97381)">
        <path
           style="fill:#17537b;fill-opacity:0.917647;stroke:none;stroke-width:1.00157;stroke-dasharray:none"
           d="m 533.31389,391.64761 c -5.20584,-1.00243 -10.37147,-3.31231 -15.16409,-6.78085 -6.60507,-4.78024 -9.01688,-6.10163 -14.23585,-7.79954 -5.08698,-1.65497 -10.55625,-1.86729 -14.98419,-0.5817 -2.27068,0.65926 -5.4498,2.29763 -7.16314,3.69155 -1.18644,0.96525 -1.0955,0.50788 0.15108,-0.75988 3.60607,-3.66734 7.87137,-5.698 13.44088,-6.39904 4.33314,-0.54541 11.0454,0.59721 15.79971,2.68957 2.01182,0.8854 5.24914,2.76331 8.04455,4.66649 4.62399,3.14812 7.8974,4.90284 11.76576,6.30706 4.30498,1.56272 7.52417,2.07258 12.08333,1.91378 3.30999,-0.11529 4.66971,-0.35291 7.34191,-1.28304 3.28386,-1.14304 5.14641,-2.26952 7.46414,-4.51434 0.50677,-0.49083 0.9214,-0.8089 0.9214,-0.70683 0,0.29845 -3.64877,3.75249 -5.1425,4.86804 -3.22447,2.40812 -6.58498,3.8912 -10.44602,4.61008 -2.38521,0.44409 -7.75698,0.48688 -9.87697,0.0787 z"
           id="path186-2-9-9-3"
           sodipodi:nodetypes="cssssssssssssssscc" />
      </g>
    </g>
  </g>
</svg>
