<?xml version="1.0" encoding="UTF-8" standalone="no"?>
<!-- Created with Inkscape (http://www.inkscape.org/) -->

<svg
   width="123.785mm"
   height="78.486mm"
   viewBox="0 0 123.785 78.486"
   version="1.1"
   id="svg1"
   inkscape:version="1.4 (e7c3feb100, 2024-10-09)"
   sodipodi:docname="logo_white.svg"
   inkscape:export-filename="logo_taq_vfinal.png"
   inkscape:export-xdpi="300"
   inkscape:export-ydpi="300"
   xmlns:inkscape="http://www.inkscape.org/namespaces/inkscape"
   xmlns:sodipodi="http://sodipodi.sourceforge.net/DTD/sodipodi-0.dtd"
   xmlns="http://www.w3.org/2000/svg"
   xmlns:svg="http://www.w3.org/2000/svg">
  <sodipodi:namedview
     id="namedview1"
     pagecolor="#424242"
     bordercolor="#000000"
     borderopacity="0.25"
     inkscape:showpageshadow="2"
     inkscape:pageopacity="0.0"
     inkscape:pagecheckerboard="0"
     inkscape:deskcolor="#d1d1d1"
     inkscape:document-units="mm"
     showguides="true"
     inkscape:zoom="1.7301179"
     inkscape:cx="236.68907"
     inkscape:cy="152.30176"
     inkscape:window-width="1486"
     inkscape:window-height="891"
     inkscape:window-x="0"
     inkscape:window-y="0"
     inkscape:window-maximized="1"
     inkscape:current-layer="g2">
    <sodipodi:guide
       position="63.917535,64.787358"
       orientation="0,-1"
       id="guide1"
       inkscape:locked="false" />
    <sodipodi:guide
       position="52.850795,48.544709"
       orientation="1,0"
       id="guide2"
       inkscape:locked="false" />
  </sodipodi:namedview>
  <defs
     id="defs1">
    <rect
       x="423.55432"
       y="511.75717"
       width="103.29971"
       height="45.944069"
       id="rect173-4-8" />
  </defs>
  <g
     inkscape:label="Calque 1"
     inkscape:groupmode="layer"
     id="layer1"
     transform="translate(-54.785414,-81.289204)">
    <g
       id="g2"
       transform="translate(0.52916667,-0.52916663)">
      <g
         id="g279-6-7"
         style="fill:#ffffff;fill-opacity:0.917647;stroke:none"
         transform="matrix(0.77656433,0,0,0.77656433,-152.02275,-474.94608)"
         inkscape:export-filename="../Documents/git/hugoplate/assets/images/logo.svg"
         inkscape:export-xdpi="300"
         inkscape:export-ydpi="300">
        <path
           style="opacity:1;mix-blend-mode:color-dodge;fill:#ffffff;fill-opacity:0.917647;fill-rule:nonzero;stroke:none;stroke-width:0.173858;stroke-dasharray:none;stroke-opacity:1"
           d="m 302.95094,757.70291 c -1.96932,-1.52572 -4.98444,-4.65012 -6.08491,-6.30546 -1.95256,-2.93706 -2.90745,-5.92451 -3.0436,-9.52208 -0.16235,-4.29002 0.89129,-7.78706 3.4934,-11.59466 2.64116,-3.86475 8.43045,-7.87074 11.37445,-7.87074 0.81099,0 0.91513,0.0481 1.23354,0.57038 0.46722,0.7663 0.44972,1.43226 -0.0458,1.74275 -0.21719,0.13609 -1.22415,0.62685 -2.2377,1.09058 -5.37364,2.45861 -9.02131,6.76286 -10.00818,11.80965 -0.13896,0.71063 -0.18299,2.10383 -0.12757,4.03663 0.0912,3.18005 0.2907,4.08775 1.36126,6.19255 1.66246,3.26853 5.28081,6.83386 8.64208,8.51543 0.67793,0.33916 1.19238,0.61665 1.14321,0.61665 -0.0491,0 -1.00509,0.43026 -2.12426,0.95613 l -2.03487,0.95613 z"
           id="path168-71-1" />
        <path
           style="opacity:1;mix-blend-mode:color-dodge;fill:#ffffff;fill-opacity:0.917647;fill-rule:nonzero;stroke:none;stroke-width:0.173858;stroke-dasharray:none;stroke-opacity:1"
           d="m 291.66931,781.90228 c 0,-0.69401 0.73522,-4.45881 1.15084,-5.89302 0.88153,-3.042 2.89433,-6.04874 6.15641,-9.19653 3.31506,-3.19892 6.69735,-5.18197 14.80647,-8.68113 6.31878,-2.72661 8.57362,-4.06546 11.06727,-6.57137 2.33636,-2.34784 3.56848,-4.72079 4.13593,-7.96542 0.66875,-3.82385 -0.27138,-8.2618 -2.42014,-11.42436 -1.10369,-1.62443 -2.1575,-2.79904 -3.45169,-3.84737 -1.44134,-1.16751 -2.33271,-1.68758 -4.42569,-2.58213 -1.89516,-0.81001 -2.27309,-1.10271 -2.27309,-1.76045 0,-0.57509 1.03256,-1.57053 1.6291,-1.57053 0.94329,0 3.69909,1.11964 5.22995,2.12485 1.92354,1.26307 4.4162,3.61887 5.81739,5.49799 1.34068,1.79799 2.65457,4.50912 3.15265,6.50536 0.54106,2.16851 0.58138,7.06938 0.0736,8.9508 -1.00283,3.71595 -3.20985,7.12857 -6.22134,9.61979 -2.65044,2.19256 -4.55295,3.23951 -10.90993,6.00371 -5.59601,2.43331 -8.68819,3.96088 -10.53034,5.20211 -3.39746,2.28918 -5.98458,5.01596 -7.36643,7.76409 -0.78246,1.55608 -1.52387,4.21963 -1.69897,6.10363 -0.0965,1.03798 -0.16272,1.21366 -0.48127,1.27608 -0.20317,0.0398 -1.06046,0.22379 -1.90508,0.40885 -1.43784,0.31503 -1.53567,0.31726 -1.53567,0.035 z"
           id="path169-5-3" />
        <path
           style="opacity:1;mix-blend-mode:color-dodge;fill:#ffffff;fill-opacity:0.917647;fill-rule:nonzero;stroke:none;stroke-width:0.184713;stroke-dasharray:none;stroke-opacity:1"
           d="m 331.32401,797.31745 c -0.54775,-0.22779 -2.09028,-1.05567 -2.23834,-1.20133 -0.0297,-0.0292 0.15038,-0.60164 0.40031,-1.27191 1.06354,-2.85226 1.35444,-4.58977 1.44493,-8.63051 0.0721,-3.22115 0.0346,-4.0356 -0.26022,-5.64695 -0.83407,-4.55857 -2.69233,-8.04119 -6.40747,-12.00844 -1.06731,-1.13974 -1.91484,-1.82666 -3.14111,-2.54586 l -1.67941,-0.98496 c -0.56952,-0.15293 -0.16815,-0.94585 2.07766,-3.4933 l 1.44038,1.14417 c 5.08327,4.0379 7.41406,6.95849 9.61273,12.04518 1.44359,3.33979 2.07942,6.90801 2.09021,11.73011 0.005,2.13956 -0.25888,3.74071 -1.2473,7.57442 -0.67826,2.63074 -1.01627,3.58032 -1.26818,3.56276 -0.11018,-0.008 -0.48107,-0.1307 -0.82419,-0.27338 z"
           id="path170-91-08"
           sodipodi:nodetypes="sssssssccsscscs" />
      </g>
      <text
         xml:space="preserve"
         id="text173-0-6"
         style="font-style:normal;font-variant:normal;font-weight:normal;font-stretch:normal;font-size:9.24883px;line-height:1.2;font-family:'.Apple Color Emoji UI';-inkscape-font-specification:'.Apple Color Emoji UI';text-align:start;writing-mode:lr-tb;direction:ltr;white-space:pre;shape-inside:url(#rect173-4-8);display:inline;fill:#ffffff;fill-opacity:1"
         transform="matrix(0.81069027,0,0,0.81811114,-230.05216,-307.38554)"><tspan
           x="423.55469"
           y="519.93517"
           id="tspan8"><tspan
             style="font-family:'PT Serif';-inkscape-font-specification:'PT Serif'"
             id="tspan3">Table sur l’ADN 
</tspan></tspan><tspan
           x="423.55469"
           y="531.25933"
           id="tspan10"><tspan
             style="font-family:'PT Serif';-inkscape-font-specification:'PT Serif'"
             id="tspan9">environnemental 
</tspan></tspan><tspan
           x="423.55469"
           y="542.58349"
           id="tspan12"><tspan
             style="font-family:'PT Serif';-inkscape-font-specification:'PT Serif'"
             id="tspan11">du Québec </tspan></tspan></text>
      <g
         id="text174-9-5"
         style="font-size:26.6667px;font-family:'.Apple Color Emoji UI';-inkscape-font-specification:'.Apple Color Emoji UI';white-space:pre;fill:#ffeb9a;fill-opacity:1"
         transform="matrix(0.77656433,0,0,0.77656433,-217.1143,-309.11138)"
         aria-label="TAQ">
        <path
           style="font-size:21.3333px;font-family:Marion;-inkscape-font-specification:Marion;fill:#ffeb9a;fill-opacity:1;stroke-width:1.25545"
           d="m 429.74835,537.36604 v -0.82048 c 1.87099,0 2.80648,-0.83868 2.80648,-2.5161 v -12.60782 c 0,-0.67461 -0.42841,-1.01192 -1.28522,-1.01192 -1.15406,0 -2.08955,0.39201 -2.80648,1.176 -0.71691,0.76578 -1.25023,1.93266 -1.59996,3.50066 l -0.81309,-0.21878 0.70818,-5.82532 c 0.40218,0.0548 0.77813,0.10025 1.12784,0.13674 0.3672,0.0364 0.71692,0.0548 1.04915,0.0548 h 10.09809 c 0.3672,0 0.74315,-0.0183 1.12784,-0.0548 0.38469,-0.0364 0.77811,-0.0821 1.18028,-0.13674 v 5.71592 l -0.70816,0.10934 c -0.20983,-2.9172 -1.6087,-4.37581 -4.19661,-4.37581 -0.8743,0 -1.31145,0.30995 -1.31145,0.92985 v 12.60783 c 0,1.67741 0.94424,2.51611 2.83272,2.51611 v 0.82046 z m 20.64205,0 v -0.82048 c 0.24481,-0.0364 0.49835,-0.0729 0.76064,-0.10934 0.27977,-0.0365 0.52457,-0.0821 0.7344,-0.13674 0.22731,-0.0548 0.41092,-0.11855 0.55081,-0.19146 0.15737,-0.0912 0.23606,-0.19143 0.23606,-0.30083 -0.0175,-0.0729 -0.035,-0.17317 -0.0525,-0.30083 0,-0.14587 -0.0437,-0.31908 -0.13115,-0.51963 l -1.18029,-3.36391 c -0.19235,-0.47405 -0.72567,-0.71107 -1.59997,-0.71107 h -3.90808 c -0.66446,0 -1.06663,0.23702 -1.20652,0.71107 l -0.89177,2.84429 c -0.0699,0.1641 -0.10489,0.40112 -0.10489,0.71106 0,0.83871 0.76938,1.25805 2.30814,1.25805 v 0.92987 h -5.90149 v -0.92987 c 0.50709,-0.0365 0.9355,-0.21882 1.28522,-0.54697 0.3672,-0.32819 0.6732,-0.80225 0.91801,-1.42214 l 6.27524,-15.447 0.80653,0.13163 6.21622,16.24523 c 0.24481,0.38288 0.43715,0.61991 0.57704,0.71105 0.035,0.0364 0.17488,0.0912 0.41965,0.1641 0.26229,0.0548 0.62075,0.14589 1.07538,0.27349 v 0.82048 z m -2.28191,-14.68638 -2.30813,5.74329 c -0.19235,0.43759 -0.28852,0.74754 -0.28852,0.92985 0,0.2735 0.32349,0.41025 0.97047,0.41025 h 3.30482 c 0.52457,0 0.78686,-0.10939 0.78686,-0.32818 0,-0.0912 -0.0962,-0.39201 -0.2885,-0.90252 z"
           id="path375-93"
           sodipodi:nodetypes="ccssscccccssscccsssccccccccccccssccsccccccccccccccccsssscc" />
        <path
           style="font-weight:500;font-size:24px;font-family:Cochin;-inkscape-font-specification:'Cochin Medium';fill:#ffeb9a;fill-opacity:1"
           d="m 477.35731,536.43518 q -0.672,0.864 -1.248,1.56 -0.552,0.696 -1.2,1.152 -0.648,0.48 -1.488,0.72 -0.816,0.264 -1.992,0.264 -0.888,0 -1.704,-0.264 -0.792,-0.24 -1.56,-0.624 -0.768,-0.384 -1.536,-0.84 -0.744,-0.456 -1.512,-0.84 -0.768,-0.384 -1.608,-0.648 -0.816,-0.24 -1.704,-0.24 -0.576,0 -1.128,0.192 -0.552,0.192 -1.056,0.456 l -0.336,-0.384 q 0.84,-0.528 1.608,-0.768 0.792,-0.216 1.8,-0.216 1.32,0 2.64,0.384 1.344,0.408 2.616,0.864 1.272,0.48 2.448,0.864 1.2,0.384 2.232,0.384 0.768,0 1.368,-0.168 0.6,-0.144 1.104,-0.456 0.504,-0.312 0.936,-0.768 0.456,-0.432 0.912,-1.008 z m -19.416,-9.144 q 0,-1.944 0.696,-3.48 0.72,-1.536 1.92,-2.592 1.2,-1.08 2.808,-1.632 1.632,-0.576 3.456,-0.576 1.824,0 3.432,0.576 1.632,0.552 2.832,1.632 1.2,1.056 1.896,2.592 0.72,1.536 0.72,3.48 0,1.944 -0.72,3.48 -0.696,1.536 -1.896,2.616 -1.2,1.056 -2.832,1.632 -1.608,0.552 -3.432,0.552 -1.824,0 -3.456,-0.552 -1.608,-0.576 -2.808,-1.632 -1.2,-1.08 -1.92,-2.616 -0.696,-1.536 -0.696,-3.48 z m 2.544,0 q 0,1.464 0.432,2.808 0.432,1.344 1.248,2.376 0.816,1.008 1.992,1.632 1.176,0.6 2.664,0.6 1.488,0 2.664,-0.6 1.176,-0.624 1.992,-1.632 0.816,-1.032 1.248,-2.376 0.432,-1.344 0.432,-2.808 0,-1.464 -0.432,-2.808 -0.432,-1.344 -1.248,-2.352 -0.816,-1.032 -1.992,-1.632 -1.176,-0.624 -2.664,-0.624 -1.488,0 -2.664,0.624 -1.176,0.6 -1.992,1.632 -0.816,1.008 -1.248,2.352 -0.432,1.344 -0.432,2.808 z"
           id="path376-6" />
      </g>
      <path
         style="fill:#afdde9;fill-opacity:1;stroke:none;stroke-width:0.136291"
         d="m 81.545473,100.6806 c -0.623458,-0.713507 -0.595516,-1.178427 0.09815,-1.632944 0.306604,-0.200757 1.318941,-0.231287 9.726864,-0.292037 l 9.384633,-0.0675 0.35391,0.353877 c 0.44208,0.442107 0.45054,0.920227 0.025,1.414984 l -0.32887,0.38239 -9.520541,0.0458 c -9.098361,0.0435 -9.530239,0.0349 -9.739182,-0.20429 z"
         id="path179-3-51" />
      <path
         style="fill:#afdde9;fill-opacity:1;stroke:none;stroke-width:0.136291"
         d="m 83.427499,94.64074 c -0.476762,-0.56667 -0.459126,-0.810984 0.09745,-1.350446 l 0.461331,-0.447155 6.864333,-0.02348 c 3.775384,-0.01174 7.156949,0.02641 7.514587,0.08834 1.085816,0.185201 1.525183,1.011623 0.929176,1.747822 l -0.26052,0.321741 -7.621214,0.04725 -7.621226,0.04725 z"
         id="path180-5-89" />
      <path
         style="fill:#afdde9;fill-opacity:1;stroke:none;stroke-width:0.136291"
         d="m 87.738953,111.9632 c -0.732749,-0.47363 -1.131778,-0.88709 -1.131778,-1.17261 0,-0.0466 0.212674,-0.17288 0.47264,-0.28147 0.36791,-0.1538 1.175795,-0.19665 3.645798,-0.19343 2.058788,0 3.095749,0.0496 2.952745,0.13297 -0.33699,0.19694 -4.432442,1.88976 -4.787292,1.97875 -0.221655,0.0557 -0.556418,-0.0792 -1.152113,-0.46421 z"
         id="path182-7-0" />
      <path
         style="fill:#afdde9;fill-opacity:1;stroke:none;stroke-width:0.136291"
         d="m 83.233745,106.4613 c -0.501092,-0.53683 -0.53154,-1.01677 -0.09351,-1.47399 l 0.383236,-0.40002 h 7.717613 7.717622 l 0.36622,0.3823 c 0.429597,0.44838 0.457547,0.78583 0.10325,1.24678 -0.37249,0.48466 -1.187566,0.53342 -9.083308,0.54322 l -6.824889,0.009 z"
         id="path183-7-9" />
      <path
         style="fill:#afdde9;fill-opacity:1;stroke:none;stroke-width:0.717542;stroke-dasharray:none"
         d="m 105.26177,147.75837 c -1.22866,-0.12083 -3.51492,-0.58494 -5.22992,-1.06169 -2.107378,-0.58583 -5.353115,-2.0363 -8.586348,-3.83706 -3.877766,-2.15976 -4.634963,-2.53687 -6.571116,-3.27267 -2.384946,-0.90636 -4.674793,-1.55502 -6.440926,-1.82456 -2.280614,-0.34807 -6.956782,-0.43034 -8.882552,-0.15628 -1.765372,0.25124 -3.421403,0.7102 -5.005159,1.38717 -0.681443,0.29128 -1.272828,0.5296 -1.31418,0.5296 -0.249626,0 0.972017,-1.11634 1.775373,-1.62235 2.245684,-1.41446 2.702717,-1.56444 5.994836,-1.96735 3.795831,-0.46456 7.004144,-0.43163 10.751906,0.11032 3.748244,0.54202 6.511702,1.64539 12.894665,5.14852 5.606561,3.07703 11.849931,4.78402 16.657491,4.55432 2.75011,-0.13138 4.91884,-0.62823 7.67056,-1.75728 1.86571,-0.76551 3.41837,-1.62485 4.45239,-2.46428 0.43715,-0.35489 0.79375,-0.59815 0.79241,-0.5406 -2.33507,2.63206 -3.02181,2.9738 -6.2009,4.73142 -3.49574,1.93269 -6.22698,2.02553 -9.53833,2.09757 -1.19937,0.0261 -2.64845,9e-4 -3.2202,-0.0548 z"
         id="path185-4-2"
         sodipodi:nodetypes="ssssssssccssssscssss" />
      <path
         style="fill:#ffeb9a;fill-opacity:1;stroke:none;stroke-width:0.717542;stroke-dasharray:none"
         d="m 100.49555,151.59565 c -4.04266,-0.66254 -8.054104,-2.1892 -11.775882,-4.48167 -5.129262,-3.15939 -7.002188,-4.03273 -11.055053,-5.15492 -3.950367,-1.09382 -8.197607,-1.23416 -11.636188,-0.38447 -1.763328,0.43572 -4.23212,1.51857 -5.562638,2.43985 -0.921347,0.63796 -0.850727,0.33567 0.117323,-0.50223 2.800345,-2.42384 6.112625,-3.76595 10.437708,-4.2293 3.364962,-0.36047 8.577463,0.39471 12.26949,1.77761 1.562309,0.58519 4.076295,1.82635 6.247112,3.08422 3.590825,2.08068 6.132838,3.24042 9.136867,4.16851 3.343091,1.03284 5.843011,1.36983 9.383501,1.26487 2.57042,-0.0762 3.62633,-0.23325 5.70147,-0.848 5.03172,-1.49063 6.81412,-2.94646 7.63441,-3.24871 0.21269,-0.0785 -3.19499,1.88604 -5.11599,3.01532 -1.921,1.12927 -5.11365,2.5718 -8.112,3.04694 -1.85227,0.2935 -6.02382,0.32179 -7.67013,0.0521 z"
         id="path186-2-44"
         sodipodi:nodetypes="ccsssscssscsszscc" />
      <path
         style="fill:#ffeb9a;fill-opacity:1;stroke:none;stroke-width:0.0651711;stroke-dasharray:none"
         d="m 91.356042,140.20544 c -0.04844,-0.0538 -0.0593,-0.40618 -0.05637,-1.86228 0.0025,-1.79521 0.0025,-1.79521 -0.930613,-2.75858 -1.431294,-1.47643 -1.327363,-1.4018 -1.95832,-1.40458 -0.29006,0 -0.558585,-0.0168 -0.596759,-0.0271 -0.05511,-0.0192 -0.06943,0.0144 -0.07047,0.11682 -0.0025,0.55953 -0.993556,0.60946 -1.123109,0.0568 -0.129844,-0.55382 0.56673,-0.92954 1.043915,-0.563 0.06863,0.0526 0.690827,-0.0473 0.776488,-0.12446 0.04993,-0.0499 -0.446062,-0.46833 -0.602443,-0.50859 -0.479245,-0.12398 -1.235727,-0.0525 -1.417121,0.13404 -0.470705,0.48474 -1.203567,0.17535 -1.046302,-0.44171 0.11467,-0.44999 0.634497,-0.58191 1.056702,-0.26807 0.155047,0.11495 0.164698,0.11635 0.859463,0.13809 0.816329,0.0258 0.841342,0.033 1.170769,0.38527 0.127693,0.13642 0.468584,0.45194 0.757525,0.70118 0.28888,0.24917 0.712135,0.66008 0.940561,0.91299 1.28471,1.42272 1.136061,1.33163 1.1401,0.69802 0.0018,-0.2711 0.01482,-0.55977 0.03077,-0.64131 0.03092,-0.16603 -1.378533,-1.58131 -2.369672,-2.37965 -0.508482,-0.40967 -3.734641,-0.64613 -3.879737,-0.28425 -0.221629,0.55232 -1.151738,0.29013 -1.036982,-0.2923 0.08154,-0.4147 0.57278,-0.58581 0.946656,-0.33019 0.121719,0.0837 0.167182,0.0855 1.651689,0.0922 1.526658,0.007 1.526658,0.007 1.114861,-0.35099 -0.431176,-0.37473 -2.733973,-0.61873 -3.172107,-0.33605 -0.274798,0.17727 -0.6059,0.0806 -0.737728,-0.2143 -0.177195,-0.39727 0.392031,-0.69802 0.760699,-0.40187 0.143769,0.11472 0.143769,0.11472 1.067191,0.13904 1.295648,0.033 1.252128,0.0549 0.796627,-0.36681 -0.432779,-0.40004 -0.418817,-0.39481 -1.078317,-0.40531 -0.278071,-0.0168 -0.712915,-0.0246 -0.96622,-0.0443 -0.460547,-0.0361 -0.460547,-0.0361 -0.622093,0.0944 -0.520174,0.42566 -1.245811,-0.0215 -0.96104,-0.57641 0.198791,-0.39582 0.725126,-0.43811 1.025825,-0.0833 0.0996,0.11777 1.15903,0.24039 1.598684,0.18538 0.0018,0 -0.330725,-0.33931 -0.743513,-0.75321 -0.750432,-0.75237 -0.750432,-0.75237 -0.901579,-0.6481 -0.555561,0.38345 -1.273345,-0.23006 -0.943736,-0.80659 0.248863,-0.43522 1.208829,-0.25019 1.207205,0.23245 -3.99e-4,0.0558 0.278653,0.34414 0.825227,0.8523 0.825636,0.76741 0.825636,0.76741 0.855034,0.46655 0.05541,-0.56838 0.04113,-0.97317 -0.03472,-0.97347 -0.454337,0 -0.760864,-0.57502 -0.473293,-0.88482 0.37535,-0.40423 1.106266,0.15146 1.002885,0.76339 -0.21611,1.27871 0.03814,2.18861 0.674747,2.41472 0.09086,0.033 0.05185,-1.44321 -0.04122,-1.55244 -0.200057,-0.23532 -0.02661,-0.53449 0.308713,-0.53296 0.326191,0 0.422946,0.18634 0.27735,0.52957 -0.311735,0.73524 -0.127024,1.99334 0.359135,2.44556 0.560629,0.52171 0.533986,0.53391 0.53817,-0.24767 0.0025,-0.44719 0.0025,-0.44827 -0.150389,-0.6468 -0.33283,-0.43294 -0.03559,-0.90468 0.491798,-0.78053 0.404293,0.096 0.517117,0.5249 0.20567,0.78338 -0.159061,0.13522 -0.159061,0.13522 -0.132876,0.95008 0.03348,0.98082 -0.131611,0.72502 1.351003,2.09192 1.162452,1.07195 1.162452,1.07195 1.165194,0.56668 0.0025,-0.50518 0.0025,-0.50518 -0.832771,-1.29175 -0.909593,-0.85633 -0.981071,-0.94481 -0.936141,-1.15826 0.02387,-0.11088 0.0062,-0.17248 -0.08497,-0.30011 -0.157819,-0.22052 -0.135815,-0.38337 0.06847,-0.50825 0.429918,-0.26271 0.846163,0.17462 0.546444,0.57451 -0.164985,0.22026 -0.04444,0.4109 0.712186,1.12713 0.56092,0.53075 0.53216,0.546 0.536622,-0.2819 0.0038,-0.71958 0.0038,-0.71958 -1.516576,-2.16005 -0.836182,-0.79228 -1.962067,-1.86514 -2.501906,-2.3841 -1.113848,-1.07092 -0.982627,-0.99485 -1.729376,-1.00361 -0.31152,-0.0168 -0.641857,-0.0278 -0.733884,-0.0538 -0.159872,-0.0442 -0.172463,-0.0411 -0.282216,0.0772 -0.540384,0.58198 -1.437411,0.0969 -1.074408,-0.58153 0.197332,-0.36842 0.817499,-0.35851 1.076891,0.0192 0.08724,0.12686 0.08724,0.12686 0.672927,0.13117 0.686638,0.0191 0.685846,0.0323 0.01648,-0.57887 -0.394165,-0.36074 -0.394165,-0.36074 -0.655044,-0.35328 -0.638223,0.0168 -0.925016,-0.74758 -0.390379,-1.04246 0.519915,-0.28709 1.126383,0.14382 0.940256,0.66832 -0.03407,0.0955 0.626019,0.73652 0.710549,0.68923 0.141,-0.0796 0.06169,-1.07196 -0.09869,-1.23624 -0.31152,-0.31883 -0.113265,-0.75378 0.322109,-0.70668 0.407858,0.0449 0.582586,0.41408 0.337461,0.71502 -0.285232,0.35018 -0.159348,1.66854 0.192172,2.01239 0.382909,0.37427 0.376626,0.38229 0.398491,-0.50536 0.0172,-0.68955 0.0172,-0.68955 -0.128123,-0.84239 -0.349977,-0.36799 0.156528,-0.92645 0.62899,-0.69333 0.286129,0.14168 0.305786,0.47286 0.04278,0.72265 -0.127837,0.12136 -0.227027,1.68681 -0.124178,1.96116 0.0775,0.2064 0.722878,0.86134 0.760916,0.77195 0.126881,-0.29738 0.04993,-1.55361 -0.103895,-1.69578 -0.424615,-0.39264 0.09718,-0.99294 0.63775,-0.73405 0.334497,0.16031 0.332455,0.74814 -0.0025,0.84392 -0.282058,0.0806 -0.121791,2.05733 0.191959,2.36833 0.314656,0.31206 0.4065,0.38941 0.464343,0.39164 0.08101,0.0168 -0.0088,-1.65836 -0.09882,-1.83706 -0.179321,-0.35491 0.154018,-0.68083 0.570577,-0.55769 0.24704,0.0716 0.278577,0.4261 0.05726,0.64011 -0.304896,0.29507 -0.150533,2.1315 0.208727,2.48003 1.342673,1.30305 1.21535,1.36823 1.226076,-0.62626 0.0098,-1.79756 0.0098,-1.79756 -1.27017,-2.98924 -2.730548,-2.54235 -2.873301,-2.66625 -3.050267,-2.64741 -0.543314,0.0579 -0.887295,-0.64574 -0.491205,-1.00484 0.442956,-0.40105 1.147091,-0.0143 1.007807,0.55693 -0.03522,0.14335 0.572872,0.8283 0.736895,0.82899 0.01338,1.3e-4 0.02149,-0.23077 0.01959,-0.51314 -0.0018,-0.28239 -0.0025,-0.53372 -5.19e-4,-0.55877 0.0079,-0.0803 0.248425,-0.1469 0.349856,-0.097 0.143844,0.0716 0.169597,0.15362 0.125066,0.3991 -0.0776,0.42794 -0.03249,1.0977 0.08321,1.23602 0.790169,0.94471 1.343111,1.34179 1.35725,0.97481 0.01362,-0.34841 0.0049,-0.38999 -0.09603,-0.52906 -0.305498,-0.41644 0.103234,-0.86762 0.503785,-0.556 0.16465,0.12877 0.184097,0.35018 0.04456,0.51086 -0.278506,0.32093 -0.115983,1.2317 0.290207,1.62719 0.380683,0.3704 0.380683,0.3704 0.386834,-0.85262 0.0062,-1.22329 0.0062,-1.22329 -0.782854,-1.96261 -0.433843,-0.40655 -0.907995,-0.85963 -1.053642,-1.00684 -0.251839,-0.25461 -0.269835,-0.26511 -0.370804,-0.21454 -0.50957,0.25551 -1.094021,-0.3544 -0.735496,-0.76746 0.351966,-0.40544 1.094456,-0.22433 1.095334,0.26736 1.4e-5,0.1682 0.016,0.18803 0.338352,0.45316 0.185985,0.15194 0.592151,0.52559 0.902688,0.8293 0.310502,0.30359 0.581228,0.55813 0.601538,0.56573 0.205408,0.0747 0.02101,-1.07463 -0.208705,-1.30111 -0.138133,-0.13666 -0.375787,-0.37895 -0.527616,-0.53918 -0.203402,-0.215 -0.304702,-0.29139 -0.385368,-0.29177 -0.513765,0 -0.693134,-0.73126 -0.23324,-0.94631 0.485384,-0.22695 0.913204,0.14141 0.751774,0.64701 -0.03648,0.11229 0.548276,0.81343 0.621908,0.74518 0.139948,-0.12876 0.03262,-1.32277 -0.132257,-1.47309 -0.559179,-0.51029 0.218311,-1.24334 0.83149,-0.78412 0.218762,0.16388 0.18221,0.60157 -0.0667,0.79714 -0.158104,0.12423 -0.158104,0.12423 -0.160709,0.8245 -0.0025,0.7003 -0.0025,0.7003 0.346545,0.3718 0.348758,-0.32836 0.348758,-0.32836 0.266199,-0.47838 -0.230467,-0.41907 0.262181,-0.84032 0.737698,-0.63107 0.435589,0.19159 0.333245,0.81304 -0.152491,0.92637 -0.478459,0.11205 -1.246305,1.13759 -1.251139,1.67178 -0.0025,0.29018 0.01242,0.51086 0.03507,0.50341 0.02078,-0.0168 0.215561,-0.18468 0.431132,-0.394 0.21494,-0.20975 0.634627,-0.59791 0.932554,-0.86294 0.496988,-0.44232 0.54133,-0.4941 0.542088,-0.62936 0.0025,-0.56498 0.971046,-0.67724 1.081132,-0.1247 0.09056,0.45427 -0.222227,0.7396 -0.689267,0.62905 -0.138133,-0.033 -0.182185,-0.0297 -0.209302,0.0143 -0.01887,0.0303 -0.361981,0.35781 -0.762614,0.72714 -1.391648,1.28313 -1.306713,1.15274 -1.346201,2.0698 -0.07125,1.65747 -0.05992,1.68009 0.535771,1.06753 0.16594,-0.17035 0.305767,-1.20779 0.18252,-1.35255 -0.288485,-0.33931 0.185817,-0.6941 0.497301,-0.37172 0.13935,0.14404 0.15378,0.23125 0.05921,0.35371 -0.03767,0.0473 -0.07802,0.23911 -0.09752,0.4613 -0.03453,0.3938 0.260503,0.27735 0.654764,-0.25801 0.06696,-0.0908 0.281706,-0.30027 0.477372,-0.46525 0.355204,-0.30057 0.355204,-0.30057 0.390653,-1.04503 0.03521,-0.74434 0.03521,-0.74434 0.167182,-0.75447 0.250928,-0.0191 0.264738,0.0168 0.24555,0.5939 -0.01022,0.28863 -0.0098,0.52486 6.3e-4,0.52486 0.195088,0 0.763216,-0.68064 0.764283,-0.91755 0.0025,-0.47198 0.36652,-0.73905 0.798643,-0.58565 0.61092,0.21693 0.432352,1.07862 -0.226454,1.0929 -0.278991,0.0143 -0.392485,0.0984 -2.59985,2.11459 -2.048891,1.87125 -1.838391,1.57947 -1.849648,2.56555 -0.0062,0.45997 6.31e-4,0.84441 0.01057,0.85452 0.02831,0.0266 1.464196,-1.3384 1.481406,-1.40747 0.0069,-0.0303 -0.03628,-0.12519 -0.09781,-0.20951 -0.252433,-0.34378 -0.0733,-0.77784 0.320092,-0.77607 0.344738,0 0.510263,0.37591 0.324497,0.73348 -0.04981,0.0951 -0.103442,0.27502 -0.119833,0.39896 -0.02813,0.21358 -0.04122,0.23292 -0.243811,0.3614 -0.977748,0.61932 -1.667188,1.49432 -1.69547,2.15163 -0.03148,0.73139 -0.0331,0.72783 0.230206,0.46406 0.104638,-0.10438 0.698016,-0.65787 1.31906,-1.22947 1.317362,-1.21211 1.18805,-0.96173 1.201177,-2.31783 0.0079,-0.83126 0.0079,-0.83126 -0.150411,-0.97791 -0.295797,-0.2735 -0.131469,-0.72531 0.281621,-0.77397 0.500473,-0.0595 0.758094,0.4784 0.38358,0.80046 -0.107842,0.0951 -0.107842,0.0951 -0.114461,0.93502 -0.0049,0.84111 -0.0049,0.84111 0.359466,0.48909 0.200749,-0.19327 0.382143,-0.37887 0.403603,-0.41148 0.135314,-0.20976 0.0863,-1.96252 -0.05726,-2.04319 -0.205528,-0.11519 -0.2325,-0.41536 -0.05285,-0.58557 0.412959,-0.39028 1.034755,0.0926 0.720257,0.55996 -0.08914,0.13236 -0.1496,1.57828 -0.06599,1.57879 0.01648,-2.5e-4 0.121865,-0.0851 0.231877,-0.19232 0.110827,-0.10578 0.247526,-0.21836 0.303342,-0.25044 0.174398,-0.0996 0.21396,-1.62536 0.04685,-1.80912 -0.414252,-0.4554 0.227577,-0.98636 0.683276,-0.56508 0.222438,0.20569 0.225995,0.34177 0.0141,0.52803 -0.154693,0.13499 -0.154693,0.13499 -0.157626,0.69442 -0.0024,0.55827 -0.0024,0.55827 0.373272,0.24615 0.274241,-0.22769 0.367291,-0.32907 0.343281,-0.37382 -0.218831,-0.4084 0.25668,-0.90179 0.739417,-0.76691 0.716424,0.19995 0.489617,1.20028 -0.25406,1.12006 -0.170677,-0.0192 -1.069033,0.66926 -1.153288,0.88253 -0.04862,0.12495 1.262918,0.007 1.409108,-0.12471 0.363267,-0.32913 0.999674,-0.0837 0.997194,0.38552 -0.003,0.58045 -0.828857,0.78854 -1.061374,0.26764 -0.0739,-0.16555 -1.7936,-0.15481 -1.944931,0.0118 -0.04456,0.0481 -0.412907,0.39551 -0.81846,0.77034 -0.405914,0.37419 -0.972867,0.90623 -1.260349,1.18196 -0.287665,0.27513 -1.075998,1.00545 -1.752128,1.62239 -1.229423,1.12164 -1.229423,1.12164 -1.215568,2.63127 0.0069,0.83025 0.02174,1.51702 0.0313,1.52593 0.01,0.0143 0.340971,-0.28843 0.736422,-0.66078 0.39555,-0.37245 0.957639,-0.89126 1.249343,-1.15283 0.597113,-0.53563 0.583276,-0.49833 0.598758,-1.65814 0.0062,-0.47644 0.0038,-0.49015 -0.101342,-0.55385 -0.244512,-0.14765 -0.230946,-0.58488 0.02318,-0.74873 0.506853,-0.32735 1.090371,0.30075 0.656734,0.70713 -0.133212,0.12447 -0.268685,1.34477 -0.149504,1.34749 0.0098,0 0.215251,-0.18442 0.464044,-0.41017 0.490165,-0.44442 0.732413,-1.97785 0.368403,-2.32919 -0.201131,-0.19399 -0.121408,-0.54732 0.143963,-0.63823 0.418857,-0.14309 0.838969,0.37731 0.521968,0.64706 -0.107739,0.0951 -0.110652,0.10277 -0.113951,0.75126 -0.0038,0.61818 0.02199,0.75037 0.1156,0.60081 0.0452,-0.0723 0.357404,-0.37104 0.537584,-0.51439 0.184813,-0.14479 0.225045,-1.50477 0.05537,-1.82967 -0.201012,-0.38507 0.240292,-0.8518 0.805843,-0.85231 0.633704,-0.012 0.602694,0.89876 -0.03201,0.93228 -0.219974,0.0144 -0.219974,0.0144 -0.262211,0.62666 -0.05267,0.76716 -0.08372,0.75491 0.533205,0.20784 0.28504,-0.25301 0.662977,-0.57463 0.839437,-0.71508 0.193867,-0.15195 0.331117,-0.2965 0.346557,-0.35833 0.135,-0.55803 0.790447,-0.72816 1.154934,-0.29969 0.45006,0.52909 -0.304307,1.22244 -0.884664,0.81307 -0.15484,-0.10891 -0.15484,-0.10891 -0.21167,-0.0168 -0.0314,0.0526 -0.382107,0.37787 -0.779574,0.72215 -0.798688,0.69144 -0.801727,0.696 -0.536086,0.67635 0.102786,-0.0144 0.478546,-0.0241 0.834963,-0.0361 0.647947,-0.0215 0.647947,-0.0215 0.736327,-0.15147 0.268787,-0.39389 0.926604,-0.24341 0.994524,0.2272 0.0759,0.52616 -0.528877,0.83533 -0.922427,0.47148 -0.178527,-0.16509 -0.178527,-0.16509 -0.466787,-0.14239 -0.158477,0.0143 -0.674084,0.0405 -1.145694,0.06 -0.8074,0.033 -1.585435,0.39078 -1.587263,0.72728 -6.33e-4,0.11566 2.099553,0.0246 2.25481,-0.10727 0.28524,-0.22338 0.571637,-0.21048 0.735687,0.0384 0.300367,0.45585 -0.26264,0.96924 -0.686067,0.62551 -0.383567,-0.31137 -2.817147,-0.12064 -3.232619,0.2536 -0.356091,0.32027 -0.356091,0.32027 -0.07998,0.34834 0.650385,0.0669 2.842612,0 3.007952,-0.082 0.381367,-0.20355 0.830604,0.0303 0.828424,0.43076 -0.002,0.52981 -0.829714,0.70214 -0.964574,0.20067 -0.0272,-0.10027 -0.0272,-0.10027 -1.808916,-0.10843 -1.781853,-0.007 -1.781853,-0.007 -3.194279,1.26847 -1.412355,1.27658 -1.412355,1.27658 -1.415106,1.9562 -0.0038,0.75901 -0.0652,0.78105 1.074997,-0.38243 0.226718,-0.23173 0.674482,-0.64416 0.994743,-0.91733 0.748146,-0.63819 0.898256,-0.80348 0.90543,-0.99758 0.0062,-0.14956 0.0062,-0.14956 0.951083,-0.1768 0.945613,-0.0278 0.945613,-0.0278 1.085389,-0.16483 0.417564,-0.41086 1.167209,-0.073 1.05134,0.47357 -0.122269,0.57652 -0.852062,0.69201 -1.138539,0.18061 -0.0724,-0.12997 -0.098,-0.14405 -0.222203,-0.13068 -0.07716,0.0143 -0.396416,0.026 -0.709415,0.0385 -0.628244,0.0246 -0.54278,-0.0168 -0.882372,0.35473 -0.100793,0.10752 -0.139805,0.18061 -0.09702,0.18084 0.01103,0 0.143411,0.0443 0.299757,0.0955 0.284195,0.0953 0.284195,0.0953 0.425043,-0.0192 0.295055,-0.24183 0.835029,-0.11517 0.930505,0.21597 0.205479,0.71251 -0.782506,1.07375 -1.075664,0.39325 -0.06959,-0.16151 -0.06959,-0.16151 -0.612979,-0.16389 -0.670101,0 -0.623712,-0.0296 -1.554836,0.86154 -1.582386,1.51311 -1.43154,1.17373 -1.442631,3.24478 -0.0088,1.61189 -0.01864,1.8397 -0.07937,1.89513 -0.09011,0.0813 -0.212481,0.0795 -0.288187,-0.0168 z m -4.063182,-5.8796 c 0.09609,-0.10914 0.108911,-0.2358 0.03153,-0.31478 -0.124708,-0.1271 -0.255859,-0.0892 -0.30579,0.0895 -0.04659,0.16653 0.169382,0.34431 0.274171,0.22577 z m 8.759503,-0.0779 c 0.06075,-0.0985 0.05929,-0.1154 -0.01577,-0.19136 -0.140187,-0.14239 -0.376051,-0.0882 -0.376998,0.0862 -6.36e-4,0.24122 0.264374,0.31201 0.392376,0.10531 z m -9.982367,-1.1329 c 0.07195,-0.0667 0.06765,-0.25327 -0.0088,-0.31219 -0.109446,-0.0838 -0.264381,-0.0361 -0.280424,0.0853 -0.02831,0.21405 0.14996,0.35327 0.289475,0.22672 z m 11.323797,-0.026 c 0.05673,-0.0815 0.01021,-0.26201 -0.07747,-0.29293 -0.111281,-0.0411 -0.286094,0.0438 -0.286796,0.13571 -6.32e-4,0.2193 0.247006,0.32643 0.364025,0.15719 z m -12.62806,-1.12 c 0.06628,-0.15672 -0.0117,-0.30197 -0.164412,-0.3027 -0.154688,-6.6e-4 -0.230111,0.066 -0.231042,0.20018 -6.31e-4,0.21454 0.313651,0.29598 0.395279,0.10207 z m 13.986746,0.0817 c 0.18005,-0.0872 0.066,-0.34032 -0.14174,-0.31427 -0.11724,0.0144 -0.15594,0.14431 -0.082,0.27238 0.0539,0.0926 0.10022,0.10228 0.22379,0.0424 z m 0.289317,-1.44446 c 0.0129,-0.0215 -0.0134,-0.0568 -0.06,-0.0807 -0.119177,-0.0597 -0.135717,-0.0549 -0.135957,0.0365 -3.4e-4,0.0851 0.146337,0.11635 0.196277,0.0442 z m -10.332827,-1.06412 c 0.05612,-0.0805 -0.03249,-0.19232 -0.15249,-0.1928 -0.09244,-6.4e-4 -0.107147,0.0844 -0.03673,0.20617 0.05157,0.0897 0.12129,0.0854 0.189329,-0.0144 z m 6.052097,0.0443 c 4.81e-4,-0.0924 -0.08252,-0.16962 -0.183787,-0.1701 -0.079,-5.7e-4 -0.116029,0.15456 -0.05108,0.21454 0.0645,0.0588 0.234386,0.0273 0.234769,-0.0443 z M 83.462927,129.446 c 0.179749,-0.087 0.07865,-0.32035 -0.138993,-0.32142 -0.154069,0 -0.205957,0.12541 -0.108076,0.26311 0.07744,0.10997 0.120668,0.11921 0.247053,0.0579 z m 16.522906,0.0594 c 0.031,-0.0242 0.053,-0.0956 0.0535,-0.15242 6.4e-4,-0.20474 -0.225774,-0.27978 -0.314484,-0.10323 -0.0886,0.17582 0.12163,0.38247 0.26091,0.25647 z m -16.375978,-1.98428 c 0.110734,-0.0868 0.102803,-0.24941 -0.01314,-0.36359 -0.124755,-0.12232 -0.228031,-0.11825 -0.341819,0.0144 -0.20144,0.23197 0.116728,0.54689 0.355068,0.35139 z m 16.371108,0.007 c 0.0975,-0.25152 -0.20992,-0.45592 -0.41134,-0.27314 -0.119997,0.10868 -0.114957,0.18538 0.0184,0.30872 0.1489,0.13808 0.33208,0.12185 0.39282,-0.0354 z m -2.288087,-0.25778 c 0.08779,-0.12185 0.09463,-0.32681 0.01191,-0.35638 -0.06402,-0.0215 -0.177788,0.0747 -0.309261,0.2667 -0.08079,0.11746 0.207883,0.21361 0.297722,0.0833 z m -11.959572,-0.0692 c 0.154162,-0.053 0.0069,-0.35253 -0.162716,-0.33083 -0.109631,0.0143 -0.208538,0.16342 -0.175021,0.2766 0.02199,0.0789 0.189403,0.10578 0.337679,0.0537 z m 13.611352,-1.12985 c 0.168687,-0.15338 -0.0113,-0.41693 -0.2311,-0.34078 -0.0673,0.0239 -0.0977,0.30651 -0.0387,0.36102 0.0474,0.0437 0.21264,0.0316 0.26981,-0.0192 z m -15.231041,-0.16437 c 0.08094,-0.0741 0.08419,-0.0968 0.02762,-0.2358 -0.07207,-0.17607 -0.352289,-0.11898 -0.353295,0.0707 -6.34e-4,0.17797 0.199386,0.27939 0.325769,0.16459 z m 4.444726,-0.58361 c 0.128363,-0.11635 0.05265,-0.25861 -0.13763,-0.2595 -0.126355,-5.4e-4 -0.171747,0.0931 -0.107728,0.22362 0.05557,0.11274 0.145541,0.12542 0.245221,0.0347 z m -3.831658,-1.02723 c 0.159945,-0.13593 0.08022,-0.37577 -0.127072,-0.37672 -0.182402,0 -0.274545,0.0693 -0.274121,0.21477 -6.33e-4,0.22074 0.222035,0.31123 0.402423,0.16316 z m 14.099376,0.0822 c 0.10247,-0.092 0.0665,-0.31174 -0.0584,-0.35581 -0.26624,-0.0939 -0.458247,0.0937 -0.31,0.30222 0.0776,0.10996 0.27503,0.13856 0.36856,0.0538 z M 87.12494,122.45649 c 0.110919,-0.0996 0.07146,-0.3016 -0.07383,-0.37655 -0.143818,-0.0747 -0.253359,-0.0278 -0.316184,0.12971 -0.08779,0.22218 0.209613,0.41072 0.390027,0.24733 z m 9.292777,0.0192 c 0.07399,-0.0683 0.0667,-0.25613 -0.01506,-0.33139 -0.134503,-0.12401 -0.370389,-0.0449 -0.371331,0.12493 -6.32e-4,0.19973 0.247035,0.33277 0.385913,0.20689 z m -7.373472,-1.132 c 0.176572,-0.1701 -0.0018,-0.3823 -0.25118,-0.29911 -0.133809,0.0443 -0.175496,0.21787 -0.07671,0.31901 0.104371,0.10659 0.203401,0.0997 0.327935,-0.0192 z m 5.409817,-0.0682 c 6.34e-4,-0.14189 -0.07117,-0.20974 -0.224614,-0.21048 -0.140689,0 -0.201369,0.11322 -0.128337,0.23947 0.08041,0.13928 0.352082,0.11729 0.35289,-0.0292 z M 90.367955,120.505 c 0.09644,-0.10636 0.01887,-0.26933 -0.120646,-0.25535 -0.121744,0.0144 -0.178889,0.12853 -0.125543,0.25655 0.03134,0.0758 0.176834,0.0747 0.246312,-0.0144 z m 2.707724,-0.0168 c 0.03621,-0.1016 -0.117327,-0.24533 -0.223518,-0.20856 -0.06405,0.0215 -0.09052,0.21811 -0.03602,0.26864 0.06765,0.0636 0.22944,0.0242 0.259512,-0.0614 z m -1.373065,-0.81391 c 0.07084,-0.0449 0.09422,-0.1321 0.0841,-0.2805 -0.01553,-0.22194 -0.356324,-0.10028 -0.357563,0.12639 -6.31e-4,0.20903 0.10724,0.27032 0.273425,0.15384 z"
         id="path359-6-0"
         sodipodi:nodetypes="cscscsssscssscsssscsssssssssssccssscscssssssscsssssssssssssssssssscccsscccssssssssssssscssscssscssssssscsscssssscccsscsscssssssssscccsssssssscsssscsssscscsssscsccscsssssscsssscssssssscssssscscscssssscscssscsssssssssssssssscsssscccssssscsssccsssscsssccssccssscssscssccsssssscsssssssssssssssssssssssccsscssssscssscssccssccssssscscssccscscsscssssssssssssssssssscsssssssssssssssccsscccssssssssscsssscsccccc" />
      <g
         id="g283-2-2-1-5"
         style="fill:#ffffff;fill-opacity:0.917647;stroke:none;stroke-width:1.00157;stroke-dasharray:none"
         transform="matrix(0.77656433,0,0,0.66092799,-316.03989,-102.89965)">
        <path
           style="fill:#ffffff;fill-opacity:0.917647;stroke:none;stroke-width:1.00157;stroke-dasharray:none"
           d="m 533.31389,391.64761 c -5.20584,-1.00243 -10.37147,-3.31231 -15.16409,-6.78085 -6.60507,-4.78024 -9.01688,-6.10163 -14.23585,-7.79954 -5.08698,-1.65497 -10.55625,-1.86729 -14.98419,-0.5817 -2.27068,0.65926 -5.4498,2.29763 -7.16314,3.69155 -1.18644,0.96525 -1.0955,0.50788 0.15108,-0.75988 3.60607,-3.66734 7.87137,-5.698 13.44088,-6.39904 4.33314,-0.54541 11.0454,0.59721 15.79971,2.68957 2.01182,0.8854 5.24914,2.76331 8.04455,4.66649 4.62399,3.14812 7.8974,4.90284 11.76576,6.30706 4.30498,1.56272 7.52417,2.07258 12.08333,1.91378 3.30999,-0.11529 4.66971,-0.35291 7.34191,-1.28304 3.28386,-1.14304 5.14641,-2.26952 7.46414,-4.51434 0.50677,-0.49083 0.9214,-0.8089 0.9214,-0.70683 0,0.29845 -3.64877,3.75249 -5.1425,4.86804 -3.22447,2.40812 -6.58498,3.8912 -10.44602,4.61008 -2.38521,0.44409 -7.75698,0.48688 -9.87697,0.0787 z"
           id="path186-2-9-9-3"
           sodipodi:nodetypes="cssssssssssssssscc" />
      </g>
    </g>
  </g>
</svg>
