<?xml version="1.0" encoding="UTF-8" standalone="no"?>
<!-- Created with Inkscape (http://www.inkscape.org/) -->

<svg
   width="120mm"
   height="79.765648mm"
   viewBox="0 0 120 79.765648"
   version="1.1"
   id="svg1"
   inkscape:version="1.4 (e7c3feb1, 2024-10-09)"
   sodipodi:docname="logo.svg"
   inkscape:export-filename="logo_taq_vfinal.pdf"
   inkscape:export-xdpi="96"
   inkscape:export-ydpi="96"
   xmlns:inkscape="http://www.inkscape.org/namespaces/inkscape"
   xmlns:sodipodi="http://sodipodi.sourceforge.net/DTD/sodipodi-0.dtd"
   xmlns="http://www.w3.org/2000/svg"
   xmlns:svg="http://www.w3.org/2000/svg">
  <sodipodi:namedview
     id="namedview1"
     pagecolor="#17537b"
     bordercolor="#000000"
     borderopacity="0.25"
     inkscape:showpageshadow="2"
     inkscape:pageopacity="0.0"
     inkscape:pagecheckerboard="0"
     inkscape:deskcolor="#17537b"
     inkscape:document-units="mm"
     showguides="true"
     inkscape:zoom="1"
     inkscape:cx="235"
     inkscape:cy="166.5"
     inkscape:window-width="1536"
     inkscape:window-height="832"
     inkscape:window-x="0"
     inkscape:window-y="25"
     inkscape:window-maximized="0"
     inkscape:current-layer="text174-9-5">
    <sodipodi:guide
       position="48.324563,105.92866"
       orientation="0,-1"
       id="guide1"
       inkscape:locked="false" />
    <sodipodi:guide
       position="22.90748,63.11391"
       orientation="1,0"
       id="guide2"
       inkscape:locked="false" />
    <sodipodi:guide
       position="52.273591,100.92652"
       orientation="1,0"
       id="guide3"
       inkscape:locked="false" />
    <sodipodi:guide
       position="45.093185,124.17305"
       orientation="1,0"
       id="guide4"
       inkscape:locked="false" />
    <sodipodi:guide
       position="80.16875,65.74273"
       orientation="0,-1"
       id="guide5"
       inkscape:locked="false" />
  </sodipodi:namedview>
  <defs
     id="defs1">
    <rect
       x="423.55432"
       y="511.75717"
       width="103.29971"
       height="45.944069"
       id="rect173-4-8" />
  </defs>
  <g
     inkscape:label="Calque 1"
     inkscape:groupmode="layer"
     id="layer1"
     transform="translate(-84.728731,-122.24348)">
    <g
       id="g2"
       transform="translate(0.52916667,-0.52916663)">
      <g
         id="g279-6-7"
         style="fill:#ffffff;fill-opacity:1;stroke:none"
         transform="matrix(0.72742467,0,0,0.72742467,-104.063,-397.43449)"
         inkscape:export-filename="../Documents/git/hugoplate/assets/images/logo.svg"
         inkscape:export-xdpi="300"
         inkscape:export-ydpi="300">
        <path
           style="opacity:1;mix-blend-mode:color-dodge;fill:#ffffff;fill-opacity:1;fill-rule:nonzero;stroke:none;stroke-width:0.173858;stroke-dasharray:none;stroke-opacity:1"
           d="m 302.95094,757.70291 c -1.96932,-1.52572 -4.98444,-4.65012 -6.08491,-6.30546 -1.95256,-2.93706 -2.90745,-5.92451 -3.0436,-9.52208 -0.16235,-4.29002 0.89129,-7.78706 3.4934,-11.59466 2.64116,-3.86475 8.43045,-7.87074 11.37445,-7.87074 0.81099,0 0.91513,0.0481 1.23354,0.57038 0.46722,0.7663 0.44972,1.43226 -0.0458,1.74275 -0.21719,0.13609 -1.22415,0.62685 -2.2377,1.09058 -5.37364,2.45861 -9.02131,6.76286 -10.00818,11.80965 -0.13896,0.71063 -0.18299,2.10383 -0.12757,4.03663 0.0912,3.18005 0.2907,4.08775 1.36126,6.19255 1.66246,3.26853 5.28081,6.83386 8.64208,8.51543 0.67793,0.33916 1.19238,0.61665 1.14321,0.61665 -0.0491,0 -1.00509,0.43026 -2.12426,0.95613 l -2.03487,0.95613 z"
           id="path168-71-1" />
        <path
           style="opacity:1;mix-blend-mode:color-dodge;fill:#ffffff;fill-opacity:1;fill-rule:nonzero;stroke:none;stroke-width:0.173858;stroke-dasharray:none;stroke-opacity:1"
           d="m 291.66931,781.90228 c 0,-0.69401 0.73522,-4.45881 1.15084,-5.89302 0.88153,-3.042 2.89433,-6.04874 6.15641,-9.19653 3.31506,-3.19892 6.69735,-5.18197 14.80647,-8.68113 6.31878,-2.72661 8.57362,-4.06546 11.06727,-6.57137 2.33636,-2.34784 3.56848,-4.72079 4.13593,-7.96542 0.66875,-3.82385 -0.27138,-8.2618 -2.42014,-11.42436 -1.10369,-1.62443 -2.1575,-2.79904 -3.45169,-3.84737 -1.44134,-1.16751 -2.33271,-1.68758 -4.42569,-2.58213 -1.89516,-0.81001 -2.27309,-1.10271 -2.27309,-1.76045 0,-0.57509 1.03256,-1.57053 1.6291,-1.57053 0.94329,0 3.69909,1.11964 5.22995,2.12485 1.92354,1.26307 4.4162,3.61887 5.81739,5.49799 1.34068,1.79799 2.65457,4.50912 3.15265,6.50536 0.54106,2.16851 0.58138,7.06938 0.0736,8.9508 -1.00283,3.71595 -3.20985,7.12857 -6.22134,9.61979 -2.65044,2.19256 -4.55295,3.23951 -10.90993,6.00371 -5.59601,2.43331 -8.68819,3.96088 -10.53034,5.20211 -3.39746,2.28918 -5.98458,5.01596 -7.36643,7.76409 -0.78246,1.55608 -1.52387,4.21963 -1.69897,6.10363 -0.0965,1.03798 -0.16272,1.21366 -0.48127,1.27608 -0.20317,0.0398 -1.06046,0.22379 -1.90508,0.40885 -1.43784,0.31503 -1.53567,0.31726 -1.53567,0.035 z"
           id="path169-5-3" />
        <path
           style="opacity:1;mix-blend-mode:color-dodge;fill:#ffffff;fill-opacity:1;fill-rule:nonzero;stroke:none;stroke-width:0.184713;stroke-dasharray:none;stroke-opacity:1"
           d="m 331.32401,797.31745 c -0.54775,-0.22779 -2.09028,-1.05567 -2.23834,-1.20133 -0.0297,-0.0292 0.15038,-0.60164 0.40031,-1.27191 1.06354,-2.85226 1.35444,-4.58977 1.44493,-8.63051 0.0721,-3.22115 0.0346,-4.0356 -0.26022,-5.64695 -0.83407,-4.55857 -2.69233,-8.04119 -6.40747,-12.00844 -1.06731,-1.13974 -1.91484,-1.82666 -3.14111,-2.54586 l -1.67941,-0.98496 c -0.56952,-0.15293 -0.16815,-0.94585 2.07766,-3.4933 l 1.44038,1.14417 c 5.08327,4.0379 7.41406,6.95849 9.61273,12.04518 1.44359,3.33979 2.07942,6.90801 2.09021,11.73011 0.005,2.13956 -0.25888,3.74071 -1.2473,7.57442 -0.67826,2.63074 -1.01627,3.58032 -1.26818,3.56276 -0.11018,-0.008 -0.48107,-0.1307 -0.82419,-0.27338 z"
           id="path170-91-08"
           sodipodi:nodetypes="sssssssccsscscs" />
      </g>
      <text
         xml:space="preserve"
         id="text173-0-6"
         style="font-style:normal;font-variant:normal;font-weight:normal;font-stretch:normal;font-size:9.24883px;line-height:1.2;font-family:'.Apple Color Emoji UI';-inkscape-font-specification:'.Apple Color Emoji UI';text-align:start;writing-mode:lr-tb;direction:ltr;white-space:pre;shape-inside:url(#rect173-4-8);display:inline;fill:#ffffff;fill-opacity:1"
         transform="matrix(0.75939118,0,0,0.76634247,-176.72614,-237.9315)"><tspan
           x="423.55469"
           y="519.82528"
           id="tspan8"><tspan
             style="font-family:Optima;-inkscape-font-specification:Optima"
             id="tspan2">Table sur l’ADN 
</tspan></tspan><tspan
           x="423.55469"
           y="531.12984"
           id="tspan10"><tspan
             style="font-family:Optima;-inkscape-font-specification:Optima"
             id="tspan9">environnemental 
</tspan></tspan><tspan
           x="423.55469"
           y="542.43441"
           id="tspan12"><tspan
             style="font-family:Optima;-inkscape-font-specification:Optima"
             id="tspan11">du Québec </tspan></tspan></text>
      <g
         id="text174-9-5"
         style="font-size:26.6667px;font-family:'.Apple Color Emoji UI';-inkscape-font-specification:'.Apple Color Emoji UI';white-space:pre;fill:#ffffff;fill-opacity:1"
         transform="matrix(0.72742467,0,0,0.72742467,-197.62485,-281.56074)"
         aria-label="TAQ">
        <path
           style="font-size:21.3333px;font-family:Marion;-inkscape-font-specification:Marion;fill-opacity:1;stroke-width:1.25545;fill:#ffffff"
           d="m 474.54892,593.66619 v -0.82048 c 1.87099,0 2.80648,-0.83868 2.80648,-2.5161 v -12.60782 c 0,-0.67461 -0.42841,-1.01192 -1.28522,-1.01192 -1.15406,0 -2.08955,0.39201 -2.80648,1.176 -0.71691,0.76578 -1.25023,1.93266 -1.59996,3.50066 l -0.81309,-0.21878 0.70818,-5.82532 c 0.40218,0.0548 0.77813,0.10025 1.12784,0.13674 0.3672,0.0364 0.71692,0.0548 1.04915,0.0548 h 10.09809 c 0.3672,0 0.74315,-0.0183 1.12784,-0.0548 0.38469,-0.0364 0.77811,-0.0821 1.18028,-0.13674 v 5.71592 l -0.70816,0.10934 c -0.20983,-2.9172 -1.6087,-4.37581 -4.19661,-4.37581 -0.8743,0 -1.31145,0.30995 -1.31145,0.92985 v 12.60783 c 0,1.67741 0.94424,2.51611 2.83272,2.51611 v 0.82046 z m 20.64205,0 v -0.82048 c 0.24481,-0.0364 0.49835,-0.0729 0.76064,-0.10934 0.27977,-0.0365 0.52457,-0.0821 0.7344,-0.13674 0.22731,-0.0548 0.41092,-0.11855 0.55081,-0.19146 0.15737,-0.0912 0.23606,-0.19143 0.23606,-0.30083 -0.0175,-0.0729 -0.035,-0.17317 -0.0525,-0.30083 0,-0.14587 -0.0437,-0.31908 -0.13115,-0.51963 l -1.18029,-3.36391 c -0.19235,-0.47405 -0.72567,-0.71107 -1.59997,-0.71107 h -3.90808 c -0.66446,0 -1.06663,0.23702 -1.20652,0.71107 l -0.89177,2.84429 c -0.0699,0.1641 -0.10489,0.40112 -0.10489,0.71106 0,0.83871 0.76938,1.25805 2.30814,1.25805 v 0.92987 h -5.90149 v -0.92987 c 0.50709,-0.0365 0.9355,-0.21882 1.28522,-0.54697 0.3672,-0.32819 0.6732,-0.80225 0.91801,-1.42214 l 6.27524,-15.447 0.80653,0.13163 6.21622,16.24523 c 0.24481,0.38288 0.43715,0.61991 0.57704,0.71105 0.035,0.0364 0.17488,0.0912 0.41965,0.1641 0.26229,0.0548 0.62075,0.14589 1.07538,0.27349 v 0.82048 z m -2.28191,-14.68638 -2.30813,5.74329 c -0.19235,0.43759 -0.28852,0.74754 -0.28852,0.92985 0,0.2735 0.32349,0.41025 0.97047,0.41025 h 3.30482 c 0.52457,0 0.78686,-0.10939 0.78686,-0.32818 0,-0.0912 -0.0962,-0.39201 -0.2885,-0.90252 z"
           id="path375-93"
           sodipodi:nodetypes="ccssscccccssscccsssccccccccccccssccsccccccccccccccccsssscc" />
        <path
           d="m 503.91227,583.96004 c 0,-1.30723 0.20515,-2.47727 0.61563,-3.51014 0.42455,-1.03286 0.99065,-1.90435 1.69822,-2.61445 0.70765,-0.72624 1.53555,-1.27497 2.48374,-1.64615 0.96236,-0.38733 1.98128,-0.58098 3.05685,-0.58098 1.07554,0 2.08741,0.19365 3.03562,0.58098 0.96233,0.37118 1.79734,0.91991 2.50495,1.64615 0.7076,0.7101 1.26661,1.58159 1.67703,2.61445 0.42454,1.03287 0.63684,2.20291 0.63684,3.51014 0,1.30723 -0.2123,2.47732 -0.63684,3.51018 -0.41042,1.03286 -0.96943,1.91242 -1.67703,2.63864 -0.70761,0.71013 -1.54262,1.25884 -2.50495,1.64615 -0.94821,0.37119 -1.96008,0.55679 -3.03562,0.55679 -1.07557,0 -2.09449,-0.1856 -3.05685,-0.55679 -0.94819,-0.38731 -1.77609,-0.93602 -2.48374,-1.64615 -0.70757,-0.72622 -1.27367,-1.60578 -1.69822,-2.63864 -0.4104,-1.03286 -0.61563,-2.20295 -0.61563,-3.51018 z m 2.25017,0 c 0,0.98448 0.12724,1.92857 0.38212,2.83235 0.25474,0.90376 0.62269,1.7026 1.10386,2.39659 0.48119,0.67781 1.06848,1.22651 1.76197,1.64617 0.69345,0.40344 1.4789,0.60518 2.35632,0.60518 0.87741,0 1.66287,-0.20174 2.35634,-0.60518 0.69345,-0.41966 1.28075,-0.96836 1.76195,-1.64617 0.48115,-0.69399 0.84907,-1.49283 1.10383,-2.39659 0.25472,-0.90378 0.38214,-1.84787 0.38214,-2.83235 0,-0.98443 -0.12723,-1.92855 -0.38214,-2.83232 -0.25476,-0.90376 -0.62268,-1.69455 -1.10383,-2.37237 -0.4812,-0.69395 -1.0685,-1.24268 -1.76195,-1.64614 -0.69347,-0.4196 -1.47893,-0.62941 -2.35634,-0.62941 -0.87742,0 -1.66287,0.20981 -2.35632,0.62941 -0.69349,0.40346 -1.28078,0.95219 -1.76197,1.64614 -0.48117,0.67782 -0.84912,1.46861 -1.10386,2.37237 -0.25473,0.90377 -0.38212,1.84789 -0.38212,2.83232 z"
           style="font-weight:500;font-size:24px;font-family:Cochin;-inkscape-font-specification:'Cochin Medium';fill:#ffffff;fill-opacity:1;stroke:#ffffff;stroke-width:0.659291;stroke-dasharray:none;stroke-opacity:1"
           id="path1" />
        <path
           style="font-weight:500;font-size:24px;font-family:Cochin;-inkscape-font-specification:'Cochin Medium';white-space:pre;fill:#ffffff;fill-opacity:1;stroke:none;stroke-width:0.319761;stroke-dasharray:none"
           d="m 521.85705,593.05069 c -0.45398,0.66708 -0.87555,1.2693 -1.26471,1.80667 -0.3729,0.53736 -0.77826,0.98208 -1.21604,1.33414 -0.43778,0.37061 -0.94042,0.64856 -1.50792,0.83386 -0.55128,0.20383 -1.22415,0.30574 -2.01865,0.30574 -0.59993,0 -1.17552,-0.10188 -1.7268,-0.30574 -0.53507,-0.1853 -1.06202,-0.4262 -1.58087,-0.72267 -0.51884,-0.29648 -1.03772,-0.62076 -1.55656,-0.97283 -0.50263,-0.35206 -1.0134,-0.67633 -1.53223,-0.97282 -0.51885,-0.29647 -1.06201,-0.54663 -1.6295,-0.75045 -0.55129,-0.18531 -1.12689,-0.27795 -1.72682,-0.27795 -0.38914,0 -0.77017,0.0741 -1.14308,0.22235 -0.37294,0.14824 -0.72965,0.32427 -1.07014,0.5281 l -0.34049,-0.44471 c 0.5675,-0.40766 1.11066,-0.70413 1.6295,-0.88943 0.53507,-0.16678 1.1431,-0.25015 1.82411,-0.25015 0.89178,0 1.78355,0.14823 2.67531,0.44471 0.908,0.31501 1.79166,0.64855 2.651,1.00062 0.85937,0.37059 1.68627,0.70413 2.48078,1.00061 0.81068,0.29648 1.56466,0.44472 2.26186,0.44472 0.51884,0 0.98093,-0.0649 1.38628,-0.19456 0.40537,-0.11119 0.7783,-0.28722 1.11879,-0.52812 0.3405,-0.24088 0.65667,-0.53735 0.94852,-0.88943 0.30807,-0.33353 0.61615,-0.72266 0.92421,-1.16738 z"
           id="path376-6"
           sodipodi:nodetypes="ccccscscscsscccscccscsccc" />
      </g>
      <path
         style="fill:#afdde9;fill-opacity:1;stroke:none;stroke-width:0.127667"
         d="m 114.72541,141.76752 c -0.58401,-0.66836 -0.55784,-1.10385 0.0919,-1.52961 0.2872,-0.18806 1.23548,-0.21665 9.11136,-0.27356 l 8.7908,-0.0632 0.33151,0.33149 c 0.41411,0.41413 0.42204,0.86199 0.0234,1.32544 l -0.30806,0.35819 -8.9181,0.0429 c -8.52263,0.0407 -8.92718,0.0327 -9.1229,-0.19136 z"
         id="path179-3-51" />
      <path
         style="fill:#afdde9;fill-opacity:1;stroke:none;stroke-width:0.127667"
         d="m 116.48834,136.10985 c -0.44659,-0.53081 -0.43007,-0.75967 0.0913,-1.26499 l 0.43214,-0.41886 6.42997,-0.022 c 3.53649,-0.011 6.70407,0.0247 7.03908,0.0828 1.01711,0.17348 1.42868,0.94761 0.87038,1.63722 l -0.24403,0.30138 -7.13896,0.0443 -7.13897,0.0443 z"
         id="path180-5-89" />
      <path
         style="fill:#afdde9;fill-opacity:1;stroke:none;stroke-width:0.127667"
         d="m 120.52697,152.33618 c -0.68638,-0.44366 -1.06016,-0.83096 -1.06016,-1.09841 0,-0.0437 0.19922,-0.16194 0.44274,-0.26366 0.34463,-0.14407 1.10139,-0.18421 3.41509,-0.18119 1.92852,0 2.89986,0.0465 2.7659,0.12455 -0.31566,0.18448 -4.15196,1.77018 -4.48436,1.85354 -0.20763,0.0522 -0.5212,-0.0742 -1.07921,-0.43483 z"
         id="path182-7-0" />
      <path
         style="fill:#afdde9;fill-opacity:1;stroke:none;stroke-width:0.127667"
         d="m 116.30685,147.18243 c -0.46939,-0.50286 -0.49791,-0.95243 -0.0876,-1.38072 l 0.35898,-0.37471 h 7.22926 7.22926 l 0.34305,0.35811 c 0.40242,0.42001 0.4286,0.7361 0.0967,1.16789 -0.34892,0.45399 -1.11242,0.49966 -8.50854,0.50884 l -6.39302,0.008 z"
         id="path183-7-9" />
      <path
         style="fill:#afdde9;fill-opacity:1;stroke:none;stroke-width:0.728567;stroke-dasharray:none"
         d="m 136.94099,187.85744 c -1.15091,-0.13298 -3.2925,-0.64379 -4.89898,-1.16851 -1.97404,-0.64477 -5.01439,-2.24116 -8.04303,-4.22311 -3.63239,-2.37705 -4.34167,-2.7921 -6.15531,-3.60193 -2.23403,-0.99755 -4.37898,-1.71147 -6.03336,-2.00813 -2.13631,-0.38309 -6.51661,-0.47364 -8.32053,-0.172 -1.65367,0.27651 -3.20492,0.78165 -4.688456,1.52673 -0.63833,0.32059 -1.19229,0.58289 -1.23102,0.58289 -0.23383,0 0.91051,-1.22866 1.66303,-1.78558 2.103586,-1.55677 2.531696,-1.72185 5.615516,-2.16529 3.55566,-0.5113 6.56097,-0.47506 10.07159,0.12142 3.51106,0.59655 6.09966,1.81094 12.07872,5.66652 5.25179,3.38661 11.10009,5.26534 15.60344,5.01254 2.57609,-0.14461 4.60758,-0.69145 7.18518,-1.93408 1.74765,-0.84253 3.20206,-1.78834 4.17065,-2.71223 0.40949,-0.39059 0.74352,-0.65833 0.74227,-0.59498 -2.18731,2.89687 -2.8306,3.27299 -5.80852,5.20745 -3.27454,2.12714 -5.83295,2.22932 -8.93476,2.3086 -1.12348,0.0287 -2.48086,10e-4 -3.01643,-0.0603 z"
         id="path185-4-2"
         sodipodi:nodetypes="ssssssssccssssscssss" />
      <path
         style="fill:#ffcc00;fill-opacity:1;stroke:none;stroke-width:0.728567;stroke-dasharray:none"
         d="m 132.47636,192.08079 c -3.78685,-0.72919 -7.54446,-2.40945 -11.03073,-4.93256 -4.80469,-3.47726 -6.5591,-4.43847 -10.35553,-5.67357 -3.70041,-1.20387 -7.67891,-1.35832 -10.89993,-0.42315 -1.651736,0.47956 -3.964316,1.67136 -5.210636,2.68533 -0.863046,0.70214 -0.796894,0.36944 0.1099,-0.55276 2.62314,-2.66771 5.725836,-4.14486 9.777256,-4.65482 3.15205,-0.39674 8.03474,0.43443 11.49314,1.95646 1.46345,0.64406 3.81836,2.0101 5.85181,3.39452 3.3636,2.29002 5.74476,3.56645 8.5587,4.58791 3.13156,1.13676 5.47329,1.50765 8.78974,1.39213 2.40777,-0.0839 3.39686,-0.25671 5.34069,-0.93331 4.71332,-1.64061 6.38294,-3.24291 7.15132,-3.57558 0.19923,-0.0863 -2.99282,2.07581 -4.79226,3.3187 -1.79944,1.24289 -4.79007,2.83056 -7.59869,3.35349 -1.73506,0.32304 -5.64264,0.35417 -7.18478,0.0573 z"
         id="path186-2-44"
         sodipodi:nodetypes="ccsssscssscsszscc" />
      <path
         style="fill:#ffcc00;fill-opacity:1;stroke:none;stroke-width:0.075;stroke-dasharray:none"
         d="m 123.95712,184.35253 c -0.0557,-0.0619 -0.0682,-0.46744 -0.0649,-2.14316 0.003,-2.06595 0.003,-2.06595 -1.07096,-3.17461 -1.64716,-1.69911 -1.52756,-1.61322 -2.25367,-1.61641 -0.33381,0 -0.64284,-0.0192 -0.68677,-0.0313 -0.0634,-0.022 -0.0799,0.0165 -0.0811,0.13444 -0.003,0.64392 -1.1434,0.70138 -1.29249,0.0654 -0.14943,-0.63734 0.6522,-1.06973 1.20135,-0.6479 0.079,0.0605 0.79502,-0.0544 0.8936,-0.14324 0.0575,-0.0575 -0.51333,-0.53895 -0.6933,-0.58528 -0.55153,-0.14269 -1.4221,-0.0605 -1.63085,0.15424 -0.5417,0.55786 -1.38509,0.2018 -1.20411,-0.50832 0.13197,-0.51787 0.73019,-0.66968 1.21608,-0.30851 0.17843,0.13225 0.18954,0.1339 0.98908,0.15892 0.93945,0.0297 0.96824,0.0379 1.34735,0.44338 0.14695,0.15699 0.53925,0.52009 0.87177,0.80693 0.33245,0.28675 0.81954,0.75963 1.08242,1.05068 1.47846,1.6373 1.3074,1.53247 1.31205,0.8033 0.002,-0.312 0.017,-0.6442 0.0354,-0.73803 0.0356,-0.19108 -1.58644,-1.81981 -2.72707,-2.73855 -0.58517,-0.47146 -4.29789,-0.74358 -4.46487,-0.32712 -0.25506,0.63562 -1.32544,0.33388 -1.19338,-0.33638 0.0938,-0.47725 0.65917,-0.67416 1.08943,-0.37998 0.14008,0.0962 0.1924,0.0984 1.90079,0.10612 1.75691,0.008 1.75691,0.008 1.28301,-0.40393 -0.49621,-0.43123 -3.14631,-0.71202 -3.65052,-0.38672 -0.31624,0.204 -0.69728,0.0927 -0.84899,-0.24661 -0.20392,-0.45719 0.45115,-0.8033 0.87542,-0.46249 0.16546,0.13197 0.16546,0.13197 1.22815,0.16001 1.49105,0.0379 1.44097,0.0632 0.91677,-0.42213 -0.49805,-0.46038 -0.48198,-0.45436 -1.24095,-0.46643 -0.32001,-0.0192 -0.82043,-0.0283 -1.11194,-0.0509 -0.53001,-0.0415 -0.53001,-0.0415 -0.71592,0.1086 -0.59862,0.48985 -1.4337,-0.0247 -1.10598,-0.66333 0.22877,-0.45554 0.83449,-0.5042 1.18054,-0.096 0.11462,0.13554 1.33383,0.27664 1.83979,0.21335 0.002,0 -0.3806,-0.39049 -0.85565,-0.86681 -0.86361,-0.86585 -0.86361,-0.86585 -1.03755,-0.74584 -0.63935,0.44127 -1.46539,-0.26476 -1.08607,-0.92825 0.2864,-0.50085 1.39114,-0.28791 1.38927,0.26751 -4.5e-4,0.0641 0.32068,0.39606 0.94969,0.98085 0.95016,0.88316 0.95016,0.88316 0.98399,0.53691 0.0638,-0.65409 0.0473,-1.11994 -0.0399,-1.12029 -0.52286,0 -0.87561,-0.66174 -0.54467,-1.01827 0.43196,-0.46519 1.27311,0.17431 1.15414,0.87852 -0.24871,1.47157 0.0439,2.51871 0.77651,2.77891 0.10455,0.0379 0.0597,-1.66087 -0.0474,-1.78657 -0.23023,-0.27081 -0.0306,-0.61511 0.35527,-0.61335 0.37539,0 0.48674,0.21445 0.31918,0.60945 -0.35875,0.84613 -0.14618,2.29398 0.4133,2.8144 0.64518,0.60039 0.61452,0.61444 0.61934,-0.28503 0.003,-0.51464 0.003,-0.51588 -0.17307,-0.74435 -0.38303,-0.49823 -0.041,-1.04111 0.56597,-0.89823 0.46526,0.11052 0.5951,0.60405 0.23669,0.9015 -0.18305,0.15562 -0.18305,0.15562 -0.15292,1.09338 0.0385,1.12874 -0.15146,0.83437 1.55476,2.40742 1.33777,1.23362 1.33777,1.23362 1.34093,0.65214 0.003,-0.58137 0.003,-0.58137 -0.95837,-1.48656 -1.04678,-0.98547 -1.12904,-1.0873 -1.07733,-1.33295 0.0275,-0.12757 0.007,-0.1985 -0.0978,-0.34537 -0.18162,-0.25377 -0.1563,-0.44119 0.0788,-0.58492 0.49475,-0.30232 0.97378,0.20097 0.62886,0.66116 -0.18987,0.25348 -0.0511,0.47288 0.81959,1.29713 0.64552,0.61081 0.61242,0.62836 0.61756,-0.32442 0.004,-0.8281 0.004,-0.8281 -1.74531,-2.48583 -0.96229,-0.91176 -2.25798,-2.14643 -2.87924,-2.74364 -1.28184,-1.23246 -1.13082,-1.1449 -1.9902,-1.15499 -0.3585,-0.0192 -0.73866,-0.0319 -0.84456,-0.0619 -0.18399,-0.0509 -0.19848,-0.0473 -0.32478,0.0888 -0.62189,0.66973 -1.6542,0.11162 -1.23645,-0.66925 0.22709,-0.424 0.94079,-0.41259 1.2393,0.022 0.10041,0.14599 0.10041,0.14599 0.77442,0.15094 0.7902,0.022 0.78929,0.0371 0.019,-0.66616 -0.45361,-0.41515 -0.45361,-0.41515 -0.75384,-0.40657 -0.73448,0.0192 -1.06452,-0.86032 -0.44925,-1.19967 0.59832,-0.33039 1.29626,0.16551 1.08206,0.76912 -0.0392,0.10997 0.72044,0.84759 0.81771,0.79318 0.16227,-0.0916 0.071,-1.23365 -0.11357,-1.42269 -0.3585,-0.36693 -0.13035,-0.86747 0.37069,-0.81328 0.46937,0.0517 0.67045,0.47654 0.38835,0.82287 -0.32825,0.403 -0.18338,1.92019 0.22116,2.3159 0.44066,0.43071 0.43343,0.43994 0.45859,-0.58157 0.0198,-0.79356 0.0198,-0.79356 -0.14745,-0.96944 -0.40276,-0.4235 0.18014,-1.06619 0.72386,-0.79791 0.32928,0.16304 0.3519,0.54418 0.0492,0.83165 -0.14712,0.13966 -0.26127,1.94121 -0.14291,2.25692 0.0892,0.23754 0.8319,0.99127 0.87568,0.88839 0.14601,-0.34224 0.0575,-1.78792 -0.11957,-1.95153 -0.48865,-0.45188 0.11184,-1.1427 0.73393,-0.84476 0.38495,0.18448 0.3826,0.86098 -0.003,0.9712 -0.32459,0.0927 -0.14016,2.36761 0.22091,2.72552 0.36212,0.35912 0.46781,0.44814 0.53438,0.4507 0.0932,0.0192 -0.0102,-1.90848 -0.11371,-2.11413 -0.20637,-0.40843 0.17725,-0.7835 0.65663,-0.6418 0.2843,0.0825 0.32059,0.49037 0.0659,0.73666 -0.35088,0.33957 -0.17324,2.45297 0.24021,2.85407 1.54517,1.49957 1.39864,1.57457 1.41099,-0.72073 0.0113,-2.06865 0.0113,-2.06865 -1.46174,-3.44007 -3.14236,-2.92578 -3.30665,-3.06836 -3.5103,-3.04669 -0.62526,0.0668 -1.02112,-0.74312 -0.56529,-1.15637 0.50976,-0.46155 1.32009,-0.0165 1.1598,0.64092 -0.0405,0.16496 0.65928,0.95322 0.84804,0.95402 0.0154,1.4e-4 0.0247,-0.26558 0.0225,-0.59053 -0.002,-0.32499 -0.003,-0.61422 -6e-4,-0.64304 0.009,-0.0924 0.28589,-0.16908 0.40262,-0.11162 0.16554,0.0825 0.19518,0.17678 0.14393,0.4593 -0.0893,0.49246 -0.0374,1.26324 0.0958,1.42242 0.90934,1.08719 1.54567,1.54416 1.56195,1.12184 0.0157,-0.40097 0.006,-0.44883 -0.11053,-0.60887 -0.35157,-0.47923 0.1188,-0.99847 0.57977,-0.63985 0.18948,0.14819 0.21186,0.403 0.0513,0.58792 -0.32051,0.36931 -0.13348,1.41744 0.33398,1.87259 0.43809,0.42628 0.43809,0.42628 0.44517,-0.98121 0.007,-1.40779 0.007,-1.40779 -0.90092,-2.2586 -0.49928,-0.46788 -1.04494,-0.98929 -1.21255,-1.1587 -0.28982,-0.293 -0.31053,-0.30509 -0.42673,-0.24689 -0.58642,0.29404 -1.25902,-0.40786 -0.84643,-0.88322 0.40505,-0.46659 1.25953,-0.25816 1.26054,0.3077 10e-6,0.19356 0.0184,0.21638 0.38938,0.5215 0.21403,0.17485 0.68146,0.60485 1.03883,0.95437 0.35733,0.34938 0.66889,0.6423 0.69226,0.65104 0.23639,0.0861 0.0242,-1.2367 -0.24018,-1.49734 -0.15897,-0.15726 -0.43247,-0.4361 -0.60719,-0.62049 -0.23408,-0.24744 -0.35066,-0.33534 -0.44349,-0.33578 -0.59125,0 -0.79767,-0.84154 -0.26842,-1.08903 0.55859,-0.26119 1.05093,0.16276 0.86516,0.7446 -0.042,0.12922 0.63096,0.93611 0.7157,0.85757 0.16106,-0.14819 0.0375,-1.52228 -0.1522,-1.69526 -0.64352,-0.58726 0.25123,-1.43086 0.95689,-0.90239 0.25176,0.18861 0.20969,0.69231 -0.0768,0.91737 -0.18195,0.14296 -0.18195,0.14296 -0.18495,0.94885 -0.003,0.80591 -0.003,0.80591 0.39881,0.42787 0.40136,-0.37789 0.40136,-0.37789 0.30635,-0.55052 -0.26523,-0.48229 0.30172,-0.96705 0.84896,-0.72626 0.50128,0.22049 0.3835,0.93567 -0.17549,1.0661 -0.55062,0.12895 -1.43427,1.30915 -1.43984,1.9239 -0.003,0.33396 0.0143,0.58791 0.0404,0.57934 0.0239,-0.0192 0.24807,-0.21253 0.49616,-0.45342 0.24735,-0.24139 0.73034,-0.68808 1.0732,-0.99309 0.57194,-0.50903 0.62297,-0.56861 0.62384,-0.72428 0.003,-0.65019 1.1175,-0.77938 1.24419,-0.14351 0.10423,0.52278 -0.25574,0.85116 -0.79322,0.72392 -0.15897,-0.0379 -0.20967,-0.0341 -0.24087,0.0165 -0.0217,0.0349 -0.41658,0.41179 -0.87763,0.83681 -1.60154,1.47666 -1.50379,1.3266 -1.54924,2.38196 -0.082,1.90745 -0.069,1.93349 0.61658,1.22854 0.19097,-0.19603 0.35188,-1.38995 0.21005,-1.55654 -0.332,-0.39048 0.21384,-0.79878 0.5723,-0.42779 0.16037,0.16578 0.17697,0.26613 0.0682,0.40707 -0.0434,0.0544 -0.0898,0.27517 -0.11223,0.53086 -0.0397,0.4532 0.2998,0.3192 0.75352,-0.29692 0.0771,-0.10448 0.32419,-0.34554 0.54937,-0.53541 0.40877,-0.34589 0.40877,-0.34589 0.44957,-1.20264 0.0405,-0.8566 0.0405,-0.8566 0.19239,-0.86826 0.28878,-0.022 0.30467,0.0192 0.28259,0.68348 -0.0118,0.33215 -0.0113,0.604 7.2e-4,0.604 0.22451,0 0.87833,-0.78328 0.87955,-1.05593 0.003,-0.54316 0.4218,-0.85051 0.9191,-0.67397 0.70306,0.24964 0.49756,1.24129 -0.26061,1.25773 -0.32107,0.0165 -0.45168,0.11327 -2.99196,2.43351 -2.3579,2.15347 -2.11565,1.81769 -2.12861,2.95247 -0.007,0.52936 7.3e-4,0.97178 0.0121,0.98341 0.0326,0.0305 1.68503,-1.54025 1.70483,-1.61974 0.008,-0.0349 -0.0418,-0.14406 -0.11255,-0.24111 -0.29051,-0.39563 -0.0844,-0.89515 0.36836,-0.89312 0.39673,0 0.58722,0.43261 0.37344,0.8441 -0.0573,0.10942 -0.11904,0.3165 -0.1379,0.45913 -0.0324,0.24579 -0.0474,0.26806 -0.28059,0.4159 -1.12521,0.71273 -1.91863,1.7197 -1.95118,2.47615 -0.0362,0.8417 -0.0381,0.83761 0.26493,0.53405 0.12042,-0.12014 0.80329,-0.75708 1.518,-1.41491 1.51604,-1.3949 1.36723,-1.10677 1.38234,-2.66739 0.009,-0.95663 0.009,-0.95663 -0.1731,-1.12539 -0.34041,-0.31477 -0.1513,-0.83472 0.32409,-0.89072 0.57596,-0.0685 0.87243,0.55058 0.44144,0.92119 -0.12411,0.10942 -0.12411,0.10942 -0.13172,1.07603 -0.006,0.96798 -0.006,0.96798 0.41368,0.56287 0.23102,-0.22242 0.43977,-0.43602 0.46447,-0.47355 0.15572,-0.24139 0.0993,-2.25851 -0.0659,-2.35133 -0.23653,-0.13252 -0.26757,-0.478 -0.0608,-0.67389 0.47524,-0.44913 1.19081,0.10668 0.82888,0.64442 -0.10257,0.15231 -0.17216,1.81631 -0.0759,1.81689 0.019,-2.8e-4 0.14025,-0.0979 0.26685,-0.22132 0.12755,-0.1218 0.28486,-0.25129 0.34909,-0.28821 0.2007,-0.11465 0.24623,-1.87051 0.0539,-2.08196 -0.47672,-0.5241 0.2619,-1.13514 0.78633,-0.65032 0.25599,0.23671 0.26008,0.39332 0.0162,0.60768 -0.17802,0.15534 -0.17802,0.15534 -0.1814,0.79915 -0.003,0.64246 -0.003,0.64246 0.42958,0.28326 0.3156,-0.26201 0.42268,-0.37869 0.39505,-0.43019 -0.25184,-0.46999 0.29539,-1.03781 0.85092,-0.88258 0.82451,0.23011 0.56348,1.38131 -0.29236,1.28899 -0.19641,-0.022 -1.23027,0.77019 -1.32724,1.01563 -0.056,0.14379 1.4534,0.008 1.62164,-0.14352 0.41806,-0.37877 1.15046,-0.0962 1.1476,0.44366 -0.004,0.668 -0.95387,0.90747 -1.22146,0.30801 -0.085,-0.19053 -2.06411,-0.17816 -2.23827,0.0137 -0.0513,0.0553 -0.47518,0.45515 -0.9419,0.88652 -0.46713,0.43063 -1.11959,1.04291 -1.45043,1.36021 -0.33105,0.31663 -1.23828,1.1571 -2.01638,1.86709 -1.41484,1.29081 -1.41484,1.29081 -1.3989,3.02811 0.008,0.95547 0.025,1.74582 0.036,1.75607 0.0115,0.0165 0.39239,-0.33192 0.84749,-0.76043 0.4552,-0.42862 1.10207,-1.02569 1.43776,-1.32669 0.68717,-0.61643 0.67125,-0.57351 0.68907,-1.90825 0.007,-0.54827 0.004,-0.56405 -0.11663,-0.63738 -0.28139,-0.16991 -0.26578,-0.67309 0.0267,-0.86164 0.58329,-0.37671 1.25482,0.34612 0.75578,0.81378 -0.1533,0.14324 -0.30921,1.54759 -0.17205,1.55073 0.0113,0 0.24771,-0.21225 0.53403,-0.47204 0.56409,-0.51145 0.84287,-2.27616 0.42396,-2.68048 -0.23146,-0.22324 -0.13972,-0.62987 0.16568,-0.73448 0.48203,-0.16468 0.9655,0.4342 0.60069,0.74465 -0.12399,0.10943 -0.12735,0.11823 -0.13114,0.86456 -0.004,0.71141 0.0253,0.86353 0.13304,0.69142 0.052,-0.0833 0.41131,-0.42699 0.61866,-0.59198 0.21269,-0.16661 0.25899,-1.73172 0.0637,-2.1056 -0.23133,-0.44316 0.27653,-0.98027 0.92738,-0.98087 0.72927,-0.0138 0.69359,1.03432 -0.0368,1.07289 -0.25316,0.0165 -0.25316,0.0165 -0.30176,0.72118 -0.0606,0.88286 -0.0964,0.86876 0.61362,0.23919 0.32803,-0.29118 0.76298,-0.6613 0.96605,-0.82293 0.22311,-0.17486 0.38107,-0.34122 0.39883,-0.41237 0.15536,-0.64219 0.90966,-0.83799 1.32912,-0.34488 0.51796,0.60887 -0.3502,1.40678 -1.01808,0.93568 -0.17819,-0.12537 -0.17819,-0.12537 -0.2436,-0.0192 -0.0361,0.0605 -0.43974,0.43486 -0.89716,0.83106 -0.91915,0.79574 -0.92265,0.80099 -0.61694,0.77836 0.1183,-0.0165 0.55072,-0.0278 0.96089,-0.0415 0.74569,-0.0247 0.74569,-0.0247 0.84739,-0.17431 0.30933,-0.45331 1.06636,-0.28013 1.14453,0.26146 0.0873,0.60551 -0.60864,0.9613 -1.06155,0.54258 -0.20546,-0.18998 -0.20546,-0.18998 -0.53719,-0.16386 -0.18239,0.0165 -0.77577,0.0465 -1.31851,0.069 -0.92917,0.0379 -1.82454,0.44971 -1.82665,0.83698 -7.3e-4,0.13306 2.4162,0.0283 2.59489,-0.12345 0.32826,-0.25706 0.65785,-0.24221 0.84665,0.0443 0.34567,0.5246 -0.30226,1.11543 -0.78955,0.71985 -0.44142,-0.35834 -3.24203,-0.13884 -3.72017,0.29184 -0.40979,0.36858 -0.40979,0.36858 -0.092,0.40088 0.74848,0.077 3.27135,0 3.46163,-0.0943 0.43889,-0.23424 0.95588,0.0349 0.95337,0.49573 -0.003,0.60972 -0.95486,0.80803 -1.11005,0.23094 -0.0313,-0.11547 -0.0313,-0.11547 -2.08176,-0.12481 -2.05059,-0.008 -2.05059,-0.008 -3.67603,1.4598 -1.62537,1.46911 -1.62537,1.46911 -1.62853,2.25123 -0.004,0.87349 -0.075,0.89886 1.23712,-0.44011 0.26091,-0.26668 0.77621,-0.7413 1.14477,-1.05568 0.86098,-0.73443 1.03373,-0.92466 1.04199,-1.14804 0.007,-0.17211 0.007,-0.17211 1.09452,-0.20345 1.08823,-0.0319 1.08823,-0.0319 1.24909,-0.1897 0.48055,-0.47283 1.34326,-0.0841 1.20991,0.545 -0.14071,0.66346 -0.98058,0.79637 -1.31026,0.20785 -0.0833,-0.14957 -0.11278,-0.16579 -0.25572,-0.15039 -0.0888,0.0165 -0.4562,0.03 -0.81641,0.0443 -0.72299,0.0283 -0.62464,-0.0192 -1.01544,0.40822 -0.116,0.12372 -0.1609,0.20785 -0.11165,0.20812 0.0127,0 0.16504,0.0509 0.34496,0.10998 0.32706,0.1097 0.32706,0.1097 0.48915,-0.022 0.33956,-0.27831 0.96097,-0.13251 1.07084,0.24854 0.23647,0.81996 -0.90052,1.23569 -1.23789,0.45254 -0.0801,-0.18585 -0.0801,-0.18585 -0.70543,-0.1886 -0.77117,0 -0.71778,-0.0341 -1.78933,0.99149 -1.82104,1.7413 -1.64745,1.35076 -1.66021,3.73415 -0.0102,1.855 -0.0214,2.11717 -0.0913,2.18096 -0.10371,0.0935 -0.24453,0.0915 -0.33165,-0.0192 z m -4.67598,-6.76636 c 0.11058,-0.12565 0.12534,-0.27136 0.0363,-0.36225 -0.14352,-0.14627 -0.29445,-0.10255 -0.35191,0.1031 -0.0536,0.19163 0.19493,0.39623 0.31552,0.25981 z m 10.0806,-0.0896 c 0.0699,-0.11327 0.0682,-0.13279 -0.0181,-0.22022 -0.16133,-0.16386 -0.43277,-0.10145 -0.43386,0.0992 -7.3e-4,0.2776 0.30425,0.35906 0.45156,0.12125 z m -11.4879,-1.30376 c 0.0828,-0.0767 0.0779,-0.29148 -0.0102,-0.35928 -0.12595,-0.0965 -0.30425,-0.0415 -0.32271,0.0982 -0.0326,0.24634 0.17257,0.40655 0.33313,0.26091 z m 13.03164,-0.03 c 0.0652,-0.0938 0.0118,-0.30152 -0.0891,-0.3371 -0.12806,-0.0473 -0.32924,0.0503 -0.33004,0.15616 -7.3e-4,0.25239 0.28425,0.37567 0.41892,0.18091 z m -14.53261,-1.28892 c 0.0763,-0.18035 -0.0135,-0.34751 -0.18921,-0.34836 -0.17802,-7.4e-4 -0.26481,0.0759 -0.26588,0.23039 -7.3e-4,0.24689 0.36095,0.34059 0.45489,0.1174 z m 16.09622,0.094 c 0.20722,-0.10035 0.076,-0.39164 -0.16312,-0.36167 -0.13491,0.0165 -0.17945,0.16606 -0.0944,0.31345 0.062,0.10667 0.11533,0.11767 0.25753,0.0487 z m 0.33296,-1.66232 c 0.0148,-0.0247 -0.0154,-0.0654 -0.0691,-0.0929 -0.13716,-0.0685 -0.15619,-0.0632 -0.15646,0.0421 -4e-4,0.0979 0.1684,0.1339 0.22588,0.0509 z m -11.89123,-1.22461 c 0.0646,-0.0926 -0.0374,-0.22132 -0.17549,-0.22187 -0.10637,-7.4e-4 -0.1233,0.097 -0.0423,0.23727 0.0594,0.1031 0.13959,0.0982 0.21789,-0.0165 z m 6.96487,0.0509 c 5.5e-4,-0.1064 -0.095,-0.19521 -0.21151,-0.19576 -0.0909,-6.6e-4 -0.13353,0.17788 -0.0588,0.24689 0.0742,0.0676 0.26974,0.0314 0.27018,-0.0509 z m -13.00211,-0.16166 c 0.20686,-0.10008 0.0905,-0.36866 -0.15996,-0.3699 -0.1773,0 -0.23702,0.14434 -0.12438,0.30281 0.0891,0.12647 0.13887,0.13719 0.28431,0.0668 z m 19.01489,0.0684 c 0.0358,-0.0278 0.0611,-0.10997 0.0616,-0.1754 7.3e-4,-0.23562 -0.25984,-0.32198 -0.36193,-0.11877 -0.10194,0.20235 0.13997,0.44016 0.30025,0.29516 z m -18.8458,-2.28353 c 0.12743,-0.0998 0.1183,-0.28703 -0.0151,-0.41842 -0.14357,-0.14077 -0.26243,-0.13609 -0.39338,0.0165 -0.23182,0.26695 0.13434,0.62937 0.40862,0.40439 z m 18.8402,0.008 c 0.11231,-0.28945 -0.24158,-0.52468 -0.47339,-0.31433 -0.13809,0.12509 -0.13229,0.21334 0.0212,0.35529 0.17137,0.15891 0.38216,0.14022 0.45207,-0.0407 z m -2.6332,-0.29666 c 0.10104,-0.14021 0.1089,-0.37608 0.0137,-0.41011 -0.0737,-0.0247 -0.2046,0.0861 -0.3559,0.30691 -0.093,0.13518 0.23924,0.24584 0.34262,0.096 z m -13.7633,-0.0797 c 0.17741,-0.061 0.008,-0.40569 -0.18726,-0.38072 -0.12616,0.0165 -0.23999,0.18805 -0.20141,0.31831 0.0253,0.0907 0.21796,0.1218 0.3886,0.0619 z m 15.66422,-1.30026 c 0.19413,-0.17651 -0.0129,-0.47981 -0.26595,-0.39217 -0.0774,0.0275 -0.11245,0.35274 -0.0445,0.41546 0.0546,0.0503 0.24472,0.0363 0.31051,-0.022 z M 115.6224,167.8973 c 0.0932,-0.0852 0.0969,-0.11135 0.0318,-0.27136 -0.0829,-0.20263 -0.40542,-0.13692 -0.40658,0.0814 -7.3e-4,0.20482 0.22946,0.32153 0.3749,0.18943 z m 5.11508,-0.67164 c 0.14772,-0.13389 0.0606,-0.29761 -0.15839,-0.29863 -0.14541,-6.3e-4 -0.19765,0.10722 -0.12397,0.25734 0.0639,0.12977 0.16749,0.14434 0.28221,0.0399 z m -4.40955,-1.18215 c 0.18407,-0.15644 0.0923,-0.43244 -0.14624,-0.43354 -0.20991,0 -0.31595,0.0797 -0.31546,0.24716 -7.3e-4,0.25404 0.25552,0.35818 0.46312,0.18778 z m 16.22584,0.0946 c 0.11793,-0.10584 0.0764,-0.35875 -0.0671,-0.40945 -0.3064,-0.10805 -0.52735,0.10777 -0.35675,0.34779 0.0893,0.12647 0.31651,0.15946 0.42414,0.0619 z m -13.46588,-2.21163 c 0.12765,-0.11465 0.0822,-0.34708 -0.0849,-0.43335 -0.16551,-0.0861 -0.29157,-0.0319 -0.36387,0.14928 -0.10104,0.25569 0.24123,0.47267 0.44885,0.28464 z m 10.69431,0.022 c 0.0851,-0.0786 0.0768,-0.29476 -0.0173,-0.38139 -0.15479,-0.14269 -0.42625,-0.0517 -0.42734,0.14379 -7.3e-4,0.22985 0.28429,0.38293 0.44412,0.23809 z m -8.48554,-1.30274 c 0.20321,-0.19575 -0.002,-0.43995 -0.28906,-0.34422 -0.15399,0.0509 -0.20196,0.25074 -0.0883,0.36712 0.12012,0.12262 0.23408,0.11465 0.3774,-0.022 z m 6.22572,-0.0786 c 7.3e-4,-0.16331 -0.0819,-0.24139 -0.25849,-0.24222 -0.1619,0 -0.23174,0.13032 -0.14769,0.27557 0.0925,0.16028 0.40518,0.13499 0.40611,-0.0335 z m -4.70237,-0.88696 c 0.11099,-0.12235 0.0217,-0.30996 -0.13884,-0.29388 -0.1401,0.0165 -0.20587,0.14792 -0.14447,0.29525 0.0361,0.0872 0.2035,0.0861 0.28346,-0.0165 z m 3.1161,-0.0192 c 0.0417,-0.11684 -0.13502,-0.28232 -0.25722,-0.24001 -0.0737,0.0247 -0.10418,0.25101 -0.0415,0.30916 0.0779,0.0731 0.26404,0.0278 0.29865,-0.0707 z m -1.58014,-0.93664 c 0.0815,-0.0517 0.10843,-0.15203 0.0968,-0.32282 -0.0179,-0.25541 -0.41007,-0.11547 -0.41149,0.14544 -7.3e-4,0.24056 0.12341,0.31111 0.31466,0.17705 z"
         id="path359-6-0"
         sodipodi:nodetypes="cscscsssscssscsssscsssssssssssccssscscssssssscsssssssssssssssssssscccsscccssssssssssssscssscssscssssssscsscssssscccsscsscssssssssscccsssssssscsssscsssscscsssscsccscsssssscsssscssssssscssssscscscssssscscssscsssssssssssssssscsssscccssssscsssccsssscsssccssccssscssscssccsssssscsssssssssssssssssssssssccsscssssscssscssccssccssssscscssccscscsscssssssssssssssssssscsssssssssssssssccsscccssssssssscsssscsccccc" />
      <g
         id="g283-2-2-1-5"
         style="fill:#ffffff;fill-opacity:1;stroke:none;stroke-width:1.00157;stroke-dasharray:none"
         transform="matrix(0.72742467,0,0,0.72742467,-257.70143,-88.019609)">
        <path
           style="fill:#ffffff;fill-opacity:1;stroke:none;stroke-width:1.00157;stroke-dasharray:none"
           d="m 533.31389,391.64761 c -5.20584,-1.00243 -10.37147,-3.31231 -15.16409,-6.78085 -6.60507,-4.78024 -9.01688,-6.10163 -14.23585,-7.79954 -5.08698,-1.65497 -10.55625,-1.86729 -14.98419,-0.5817 -2.27068,0.65926 -5.4498,2.29763 -7.16314,3.69155 -1.18644,0.96525 -1.0955,0.50788 0.15108,-0.75988 3.60607,-3.66734 7.87137,-5.698 13.44088,-6.39904 4.33314,-0.54541 11.0454,0.59721 15.79971,2.68957 2.01182,0.8854 5.24914,2.76331 8.04455,4.66649 4.62399,3.14812 7.8974,4.90284 11.76576,6.30706 4.30498,1.56272 7.52417,2.07258 12.08333,1.91378 3.30999,-0.11529 4.66971,-0.35291 7.34191,-1.28304 3.28386,-1.14304 5.14641,-2.26952 7.46414,-4.51434 0.50677,-0.49083 0.9214,-0.8089 0.9214,-0.70683 0,0.29845 -3.64877,3.75249 -5.1425,4.86804 -3.22447,2.40812 -6.58498,3.8912 -10.44602,4.61008 -2.38521,0.44409 -7.75698,0.48688 -9.87697,0.0787 z"
           id="path186-2-9-9-3"
           sodipodi:nodetypes="cssssssssssssssscc" />
      </g>
    </g>
  </g>
  <g
     inkscape:groupmode="layer"
     id="layer2"
     inkscape:label="Calque 2"
     transform="translate(-29.943317,-40.954273)" />
</svg>
